<svg xmlns="http://www.w3.org/2000/svg" viewBox="0 0 500 500"><g id="freepik--background-simple--inject-39"><path d="M415.41,138.38S298.39,32.54,185.84,79.5C101.47,114.7,47.94,198.76,27.07,245S62.1,350.81,63.6,356s-38,6-39.51,23.85,128.2,86.47,199.76,94.67,213.92-51.44,228.83-67.83,9.69-39.51,6.71-52.18S491.44,283.73,484,238.26,415.41,138.38,415.41,138.38Z" style="fill:#92E3A9"></path><path d="M415.41,138.38S298.39,32.54,185.84,79.5C101.47,114.7,47.94,198.76,27.07,245S62.1,350.81,63.6,356s-38,6-39.51,23.85,128.2,86.47,199.76,94.67,213.92-51.44,228.83-67.83,9.69-39.51,6.71-52.18S491.44,283.73,484,238.26,415.41,138.38,415.41,138.38Z" style="fill:#fff;opacity:0.7000000000000001"></path></g><g id="freepik--Clouds--inject-39"><path d="M455.47,150.87a16.73,16.73,0,0,1-3.81-4.65c-4.88-8.25-12.11-17.23-22.39-18.13-16.16-1.4-20.37,18.27-23.18,22.48s-10.54-3.51-16.16-.7S381.5,159,379.4,159.7s-6.33-3.51-11.24-.7-7.73,9.13-7.73,9.13-11.24-2.81-15.45,0-7.73,4.92-7.73,4.92h146.1s1.4-16.85-7.72-19.67C467.08,150.74,461.1,155.34,455.47,150.87Z" style="fill:none;stroke:#263238;stroke-linecap:round;stroke-linejoin:round"></path><path d="M133.19,89.94a8.56,8.56,0,0,1-1.94-2.36c-2.48-4.2-6.15-8.76-11.38-9.21-8.21-.72-10.35,9.28-11.78,11.42s-5.35-1.79-8.21-.36-4.28,4.64-5.35,5-3.22-1.79-5.71-.36a11.36,11.36,0,0,0-3.93,4.64s-5.71-1.42-7.85,0-3.93,2.5-3.93,2.5h74.25s.71-8.56-3.92-10C139.09,89.88,136.05,92.21,133.19,89.94Z" style="fill:none;stroke:#263238;stroke-linecap:round;stroke-linejoin:round"></path><path d="M376.87,211.81a8.44,8.44,0,0,1-1.93-2.37c-2.48-4.19-6.15-8.75-11.38-9.21-8.21-.71-10.35,9.28-11.78,11.42s-5.36-1.78-8.21-.35-4.29,4.64-5.36,5-3.21-1.79-5.71-.36a11.3,11.3,0,0,0-3.92,4.64s-5.72-1.43-7.86,0-3.92,2.5-3.92,2.5h74.25s.71-8.56-3.93-10C382.78,211.74,379.74,214.08,376.87,211.81Z" style="fill:none;stroke:#263238;stroke-linecap:round;stroke-linejoin:round"></path></g><g id="freepik--Mountains--inject-39"><polygon points="471.04 294 462.87 286.73 413.95 269.3 389.74 257.19 368.92 250.41 333.56 270.26 292.88 270.26 248.32 285.28 172.77 247.99 147.59 215.06 134.03 205.37 106.42 217.48 93.35 222.8 30.39 293.51 30.48 294 471.04 294" style="fill:#263238"></polygon><path d="M462.87,286.73,414,269.3l-24.22-12.11-20.82-6.78-35.36,19.85H313.2l-5.82,5.06,20.42,6-5.1,8.81V294H338l-.46-1c1.39,0,13-20,13-20l12.07-10.67-.93,11.6,6-15.78L377,268.82l5.57,2.79L384,266l4.64,1.39,6,8.36L405.31,280l4.18-3.71,10.21,4.18-16.71,6-2.32,3.25,20.42-.93,23.67-.93-10.67-7,16.24,4.18,9.28,8.82,10.94-.33Z" style="fill:#fff;stroke:#263238;stroke-linecap:round;stroke-linejoin:round"></path><polygon points="95.74 292.5 99.45 278.11 104.56 273.47 109.2 265.58 113.38 266.04 108.74 294.81 95.74 292.5" style="fill:#fff;stroke:#263238;stroke-linecap:round;stroke-linejoin:round"></polygon><polygon points="60.47 292.5 82.28 267.9 84.6 272.07 89.71 272.07 97.6 259.54 108.74 243.3 115.7 243.3 120.34 247.94 117.56 254.9 123.13 260.93 135.66 262.79 139.37 250.72 150.97 247.94 151.44 260.01 166.29 259.54 172.77 247.99 147.59 215.06 134.03 205.37 106.42 217.48 93.35 222.8 30.39 293.51 30.48 294 33.71 294 36.33 292.96 60.47 292.5" style="fill:#fff;stroke:#263238;stroke-linecap:round;stroke-linejoin:round"></polygon></g><g id="freepik--Sea--inject-39"><path d="M26.36,291.35C36.48,323.84,62.58,352.49,63.6,356c1.49,5.22-38,6-39.51,23.85s128.2,86.47,199.76,94.67,213.92-51.44,228.83-67.83,9.69-39.51,6.71-52.18c-1.87-8,11.22-33.8,19.4-63.19Z" style="fill:#92E3A9"></path><line x1="40.89" y1="299.94" x2="92.3" y2="299.94" style="fill:none;stroke:#263238;stroke-linecap:round;stroke-linejoin:round"></line><line x1="63.74" y1="312.26" x2="115.16" y2="312.26" style="fill:none;stroke:#263238;stroke-linecap:round;stroke-linejoin:round"></line><line x1="97.87" y1="299.94" x2="113.21" y2="299.94" style="fill:none;stroke:#263238;stroke-linecap:round;stroke-linejoin:round"></line><line x1="124.8" y1="306.97" x2="140.14" y2="306.97" style="fill:none;stroke:#263238;stroke-linecap:round;stroke-linejoin:round"></line><line x1="48.3" y1="318.29" x2="63.64" y2="318.29" style="fill:none;stroke:#263238;stroke-linecap:round;stroke-linejoin:round"></line><line x1="63.91" y1="329.61" x2="100.33" y2="329.61" style="fill:none;stroke:#263238;stroke-linecap:round;stroke-linejoin:round"></line><line x1="62.35" y1="306.19" x2="77.69" y2="306.19" style="fill:none;stroke:#263238;stroke-linecap:round;stroke-linejoin:round"></line><line x1="87.33" y1="321.8" x2="102.67" y2="321.8" style="fill:none;stroke:#263238;stroke-linecap:round;stroke-linejoin:round"></line><line x1="369.52" y1="299.94" x2="420.93" y2="299.94" style="fill:none;stroke:#263238;stroke-linecap:round;stroke-linejoin:round"></line><line x1="392.37" y1="312.26" x2="443.79" y2="312.26" style="fill:none;stroke:#263238;stroke-linecap:round;stroke-linejoin:round"></line><line x1="426.5" y1="299.94" x2="441.84" y2="299.94" style="fill:none;stroke:#263238;stroke-linecap:round;stroke-linejoin:round"></line><line x1="453.43" y1="306.97" x2="468.77" y2="306.97" style="fill:none;stroke:#263238;stroke-linecap:round;stroke-linejoin:round"></line><line x1="376.93" y1="318.29" x2="392.27" y2="318.29" style="fill:none;stroke:#263238;stroke-linecap:round;stroke-linejoin:round"></line><line x1="392.54" y1="329.61" x2="428.96" y2="329.61" style="fill:none;stroke:#263238;stroke-linecap:round;stroke-linejoin:round"></line><line x1="390.98" y1="306.19" x2="406.32" y2="306.19" style="fill:none;stroke:#263238;stroke-linecap:round;stroke-linejoin:round"></line><line x1="415.96" y1="321.8" x2="431.3" y2="321.8" style="fill:none;stroke:#263238;stroke-linecap:round;stroke-linejoin:round"></line><line x1="272.33" y1="299.94" x2="323.75" y2="299.94" style="fill:none;stroke:#263238;stroke-linecap:round;stroke-linejoin:round"></line><line x1="295.19" y1="312.26" x2="346.6" y2="312.26" style="fill:none;stroke:#263238;stroke-linecap:round;stroke-linejoin:round"></line><line x1="329.32" y1="299.94" x2="344.65" y2="299.94" style="fill:none;stroke:#263238;stroke-linecap:round;stroke-linejoin:round"></line><line x1="356.25" y1="306.97" x2="371.58" y2="306.97" style="fill:none;stroke:#263238;stroke-linecap:round;stroke-linejoin:round"></line><line x1="279.75" y1="318.29" x2="295.08" y2="318.29" style="fill:none;stroke:#263238;stroke-linecap:round;stroke-linejoin:round"></line><line x1="295.36" y1="329.61" x2="331.77" y2="329.61" style="fill:none;stroke:#263238;stroke-linecap:round;stroke-linejoin:round"></line><line x1="293.8" y1="306.19" x2="309.14" y2="306.19" style="fill:none;stroke:#263238;stroke-linecap:round;stroke-linejoin:round"></line><line x1="318.78" y1="321.8" x2="334.11" y2="321.8" style="fill:none;stroke:#263238;stroke-linecap:round;stroke-linejoin:round"></line><line x1="175.15" y1="299.94" x2="226.56" y2="299.94" style="fill:none;stroke:#263238;stroke-linecap:round;stroke-linejoin:round"></line><line x1="198" y1="312.26" x2="249.42" y2="312.26" style="fill:none;stroke:#263238;stroke-linecap:round;stroke-linejoin:round"></line><line x1="232.13" y1="299.94" x2="247.47" y2="299.94" style="fill:none;stroke:#263238;stroke-linecap:round;stroke-linejoin:round"></line><line x1="259.06" y1="306.97" x2="274.4" y2="306.97" style="fill:none;stroke:#263238;stroke-linecap:round;stroke-linejoin:round"></line><line x1="182.56" y1="318.29" x2="197.9" y2="318.29" style="fill:none;stroke:#263238;stroke-linecap:round;stroke-linejoin:round"></line><line x1="159.93" y1="309.31" x2="175.26" y2="309.31" style="fill:none;stroke:#263238;stroke-linecap:round;stroke-linejoin:round"></line><line x1="198.18" y1="329.61" x2="234.59" y2="329.61" style="fill:none;stroke:#263238;stroke-linecap:round;stroke-linejoin:round"></line><line x1="196.61" y1="306.19" x2="211.95" y2="306.19" style="fill:none;stroke:#263238;stroke-linecap:round;stroke-linejoin:round"></line><line x1="124.41" y1="299.94" x2="163.16" y2="299.94" style="fill:none;stroke:#263238;stroke-linecap:round;stroke-linejoin:round"></line><line x1="221.59" y1="321.8" x2="236.93" y2="321.8" style="fill:none;stroke:#263238;stroke-linecap:round;stroke-linejoin:round"></line><line x1="63.74" y1="385.63" x2="115.16" y2="385.63" style="fill:none;stroke:#263238;stroke-linecap:round;stroke-linejoin:round"></line><line x1="124.8" y1="380.35" x2="140.14" y2="380.35" style="fill:none;stroke:#263238;stroke-linecap:round;stroke-linejoin:round"></line><line x1="62.35" y1="379.56" x2="77.69" y2="379.56" style="fill:none;stroke:#263238;stroke-linecap:round;stroke-linejoin:round"></line><line x1="87.33" y1="395.18" x2="102.67" y2="395.18" style="fill:none;stroke:#263238;stroke-linecap:round;stroke-linejoin:round"></line><line x1="392.37" y1="385.63" x2="443.79" y2="385.63" style="fill:none;stroke:#263238;stroke-linecap:round;stroke-linejoin:round"></line><line x1="376.93" y1="391.66" x2="392.27" y2="391.66" style="fill:none;stroke:#263238;stroke-linecap:round;stroke-linejoin:round"></line><line x1="390.98" y1="379.56" x2="406.32" y2="379.56" style="fill:none;stroke:#263238;stroke-linecap:round;stroke-linejoin:round"></line><line x1="415.96" y1="395.18" x2="431.3" y2="395.18" style="fill:none;stroke:#263238;stroke-linecap:round;stroke-linejoin:round"></line><line x1="295.19" y1="385.63" x2="346.6" y2="385.63" style="fill:none;stroke:#263238;stroke-linecap:round;stroke-linejoin:round"></line><line x1="356.25" y1="380.35" x2="371.58" y2="380.35" style="fill:none;stroke:#263238;stroke-linecap:round;stroke-linejoin:round"></line><line x1="279.75" y1="391.66" x2="295.08" y2="391.66" style="fill:none;stroke:#263238;stroke-linecap:round;stroke-linejoin:round"></line><line x1="293.8" y1="379.56" x2="309.14" y2="379.56" style="fill:none;stroke:#263238;stroke-linecap:round;stroke-linejoin:round"></line><line x1="318.78" y1="395.18" x2="334.11" y2="395.18" style="fill:none;stroke:#263238;stroke-linecap:round;stroke-linejoin:round"></line><line x1="198" y1="385.63" x2="249.42" y2="385.63" style="fill:none;stroke:#263238;stroke-linecap:round;stroke-linejoin:round"></line><line x1="259.06" y1="380.35" x2="274.4" y2="380.35" style="fill:none;stroke:#263238;stroke-linecap:round;stroke-linejoin:round"></line><line x1="182.56" y1="391.66" x2="197.9" y2="391.66" style="fill:none;stroke:#263238;stroke-linecap:round;stroke-linejoin:round"></line><line x1="159.93" y1="382.69" x2="175.26" y2="382.69" style="fill:none;stroke:#263238;stroke-linecap:round;stroke-linejoin:round"></line><line x1="196.61" y1="379.56" x2="211.95" y2="379.56" style="fill:none;stroke:#263238;stroke-linecap:round;stroke-linejoin:round"></line><line x1="221.59" y1="395.18" x2="236.93" y2="395.18" style="fill:none;stroke:#263238;stroke-linecap:round;stroke-linejoin:round"></line><line x1="86.21" y1="423.67" x2="106.16" y2="423.67" style="fill:none;stroke:#263238;stroke-linecap:round;stroke-linejoin:round"></line><line x1="307.86" y1="428.95" x2="374.74" y2="428.95" style="fill:none;stroke:#263238;stroke-linecap:round;stroke-linejoin:round"></line><line x1="387.29" y1="423.67" x2="407.24" y2="423.67" style="fill:none;stroke:#263238;stroke-linecap:round;stroke-linejoin:round"></line><line x1="287.77" y1="434.99" x2="307.72" y2="434.99" style="fill:none;stroke:#263238;stroke-linecap:round;stroke-linejoin:round"></line><line x1="306.05" y1="422.89" x2="326" y2="422.89" style="fill:none;stroke:#263238;stroke-linecap:round;stroke-linejoin:round"></line><line x1="338.54" y1="438.5" x2="358.5" y2="438.5" style="fill:none;stroke:#263238;stroke-linecap:round;stroke-linejoin:round"></line><line x1="181.44" y1="428.95" x2="248.32" y2="428.95" style="fill:none;stroke:#263238;stroke-linecap:round;stroke-linejoin:round"></line><line x1="260.86" y1="423.67" x2="280.82" y2="423.67" style="fill:none;stroke:#263238;stroke-linecap:round;stroke-linejoin:round"></line><line x1="161.35" y1="434.99" x2="181.3" y2="434.99" style="fill:none;stroke:#263238;stroke-linecap:round;stroke-linejoin:round"></line><line x1="131.91" y1="426.01" x2="151.86" y2="426.01" style="fill:none;stroke:#263238;stroke-linecap:round;stroke-linejoin:round"></line><line x1="179.63" y1="422.89" x2="199.58" y2="422.89" style="fill:none;stroke:#263238;stroke-linecap:round;stroke-linejoin:round"></line><line x1="212.12" y1="438.5" x2="232.08" y2="438.5" style="fill:none;stroke:#263238;stroke-linecap:round;stroke-linejoin:round"></line><line x1="48.3" y1="344.83" x2="63.64" y2="344.83" style="fill:none;stroke:#263238;stroke-linecap:round;stroke-linejoin:round"></line><line x1="63.91" y1="356.15" x2="100.33" y2="356.15" style="fill:none;stroke:#263238;stroke-linecap:round;stroke-linejoin:round"></line><line x1="87.33" y1="348.34" x2="102.67" y2="348.34" style="fill:none;stroke:#263238;stroke-linecap:round;stroke-linejoin:round"></line><line x1="376.93" y1="344.83" x2="392.27" y2="344.83" style="fill:none;stroke:#263238;stroke-linecap:round;stroke-linejoin:round"></line><line x1="392.54" y1="356.15" x2="428.96" y2="356.15" style="fill:none;stroke:#263238;stroke-linecap:round;stroke-linejoin:round"></line><line x1="415.96" y1="348.34" x2="431.3" y2="348.34" style="fill:none;stroke:#263238;stroke-linecap:round;stroke-linejoin:round"></line><line x1="279.75" y1="344.83" x2="295.08" y2="344.83" style="fill:none;stroke:#263238;stroke-linecap:round;stroke-linejoin:round"></line><line x1="295.36" y1="356.15" x2="331.77" y2="356.15" style="fill:none;stroke:#263238;stroke-linecap:round;stroke-linejoin:round"></line><line x1="318.78" y1="348.34" x2="334.11" y2="348.34" style="fill:none;stroke:#263238;stroke-linecap:round;stroke-linejoin:round"></line><line x1="182.56" y1="344.83" x2="197.9" y2="344.83" style="fill:none;stroke:#263238;stroke-linecap:round;stroke-linejoin:round"></line><line x1="198.18" y1="356.15" x2="234.59" y2="356.15" style="fill:none;stroke:#263238;stroke-linecap:round;stroke-linejoin:round"></line><line x1="221.59" y1="348.34" x2="236.93" y2="348.34" style="fill:none;stroke:#263238;stroke-linecap:round;stroke-linejoin:round"></line></g><g id="freepik--Ice--inject-39"><path d="M195.35,236.76s-8.16,11.66-10.14,14-28.54,7.13-31.31,11.1-23,105.43-23,105.43H417.48s-11.1-53.51-13.08-59.06S362,287.26,360,285.68s-23.39-30.13-32.9-38.85-21-9.64-24.55-14.13-29.93-9.41-52.34-10.44S196,235,195.35,236.76Z" style="fill:#fff"></path><path d="M195.35,236.76s-8.16,11.66-10.14,14-28.54,7.13-31.31,11.1-23,105.43-23,105.43H417.48s-11.1-53.51-13.08-59.06S362,287.26,360,285.68s-23.39-30.13-32.9-38.85-21-9.64-24.55-14.13-29.93-9.41-52.34-10.44S196,235,195.35,236.76Z" style="fill:#92E3A9"></path><path d="M195.35,236.76s-8.16,11.66-10.14,14-28.54,7.13-31.31,11.1-23,105.43-23,105.43H417.48s-11.1-53.51-13.08-59.06S362,287.26,360,285.68s-23.39-30.13-32.9-38.85-21-9.64-24.55-14.13-29.93-9.41-52.34-10.44S196,235,195.35,236.76Z" style="fill:#fff;opacity:0.81"></path><path d="M195.35,236.76s-8.16,11.66-10.14,14-28.54,7.13-31.31,11.1-23,105.43-23,105.43H417.48s-11.1-53.51-13.08-59.06S362,287.26,360,285.68s-23.39-30.13-32.9-38.85-21-9.64-24.55-14.13-29.93-9.41-52.34-10.44S196,235,195.35,236.76Z" style="fill:none;stroke:#263238;stroke-linecap:round;stroke-linejoin:round"></path><path d="M177.29,271s17.44-2.38,22.59,1.59,12.28,22.59,12.28,22.59,0,11.49,1.19,13.08,10.71,6,10.71,6,39.24,0,40.82-.4,19,.4,21-.79,13.87,1.58,13.87,1.58,19.42,7.93,21.4,8.33,31.32,3.56,32.51,3.17,17.43-7.93,17.43-7.93l-15.45-9.51s14.27-1.19,16.25-1.19,8.72,4.36,8.72,4.36L403.49,307c-6.34-6.32-41.63-19.86-43.48-21.34s-23.39-30.13-32.9-38.85-21-9.64-24.55-14.13-29.93-9.41-52.34-10.44S196,235,195.35,236.76c0,0-8.16,11.66-10.14,14s-28.54,7.13-31.31,11.1a79.68,79.68,0,0,1,9.91,5.54C167.77,270.22,177.29,271,177.29,271Z" style="fill:#fff;stroke:#263238;stroke-linecap:round;stroke-linejoin:round"></path><path d="M213.35,308.27s1.19,31.31,0,37.65,2.78,12.69,2.78,12.69l-.4,8.32" style="fill:none;stroke:#263238;stroke-linecap:round;stroke-linejoin:round"></path><polyline points="353.67 326.11 354.46 349.1 359.61 360.99 361.59 366.93" style="fill:none;stroke:#263238;stroke-linecap:round;stroke-linejoin:round"></polyline><polyline points="371.11 318.18 366.35 341.17 368.33 352.66 367.93 366.93" style="fill:none;stroke:#263238;stroke-linecap:round;stroke-linejoin:round"></polyline><path d="M380.62,311.84s4.75,21,4.75,22.19,8.72,15.46,8.72,15.46l1.59,7.53,3.57,10.7" style="fill:none;stroke:#263238;stroke-linecap:round;stroke-linejoin:round"></path><polyline points="285.89 313.03 285.89 330.86 280.74 341.96 282.32 351.47 284.3 355.04 290.64 367.33" style="fill:none;stroke:#263238;stroke-linecap:round;stroke-linejoin:round"></polyline><path d="M180.85,346.32l-1.58-8.72s-24.58-21.8-27-25-13.08-3.57-19.42-1.59-17.83,11.9-19.42,13.88-8.72,51.92-8.72,51.92H186.4s-2.38-23.78-2.38-25S180.85,346.32,180.85,346.32Z" style="fill:#92E3A9"></path><path d="M180.85,346.32l-1.58-8.72s-24.58-21.8-27-25-13.08-3.57-19.42-1.59-17.83,11.9-19.42,13.88-8.72,51.92-8.72,51.92H186.4s-2.38-23.78-2.38-25S180.85,346.32,180.85,346.32Z" style="fill:#fff;opacity:0.81"></path><path d="M180.85,346.32l-1.58-8.72s-24.58-21.8-27-25-13.08-3.57-19.42-1.59-17.83,11.9-19.42,13.88-8.72,51.92-8.72,51.92H186.4s-2.38-23.78-2.38-25S180.85,346.32,180.85,346.32Z" style="fill:none;stroke:#263238;stroke-linecap:round;stroke-linejoin:round"></path><path d="M129.72,356.23c.79,2,36.07,4.36,36.07,4.36l15.06-14.27-1.58-8.72s-24.58-21.8-27-25-13.08-3.57-19.42-1.59-17.83,11.9-19.42,13.88l8.32,7.13S128.93,354.25,129.72,356.23Z" style="fill:#fff;stroke:#263238;stroke-linecap:round;stroke-linejoin:round"></path><line x1="165.79" y1="360.59" x2="168.26" y2="377.07" style="fill:none;stroke:#263238;stroke-linecap:round;stroke-linejoin:round"></line><polyline points="129.72 356.23 130.91 367.33 126.49 369.46 127.56 376.19" style="fill:none;stroke:#263238;stroke-linecap:round;stroke-linejoin:round"></polyline><polygon points="302.38 396.42 297.82 392.39 256.77 392.39 251.41 397.22 237.99 398.56 234.77 403.13 317.94 403.13 316.33 398.56 302.38 396.42" style="fill:#fff;stroke:#263238;stroke-linecap:round;stroke-linejoin:round"></polygon><polygon points="234.77 403.13 234.77 408.49 317.14 408.49 317.94 403.13 234.77 403.13" style="fill:#92E3A9"></polygon><polygon points="234.77 403.13 234.77 408.49 317.14 408.49 317.94 403.13 234.77 403.13" style="fill:#fff;opacity:0.81"></polygon><polygon points="234.77 403.13 234.77 408.49 317.14 408.49 317.94 403.13 234.77 403.13" style="fill:none;stroke:#263238;stroke-linecap:round;stroke-linejoin:round"></polygon><line x1="254.62" y1="403.66" x2="254.62" y2="409.03" style="fill:none;stroke:#263238;stroke-linecap:round;stroke-linejoin:round"></line><polyline points="297.28 403.39 298.63 405.27 304.26 406.61 304.8 408.49" style="fill:none;stroke:#263238;stroke-linecap:round;stroke-linejoin:round"></polyline><path d="M208.21,412.25l-11-5.64-4.29-2.95H93.11l-3.49,5.1-1.88,5.9L70.3,418.42,58,427.27v5.1H243.62L238,424.59s-9.12-2.42-9.93-3.22-8.85-7.78-8.85-7.78Z" style="fill:#fff;stroke:#263238;stroke-linecap:round;stroke-linejoin:round"></path><polygon points="57.96 432.37 57.96 443.91 246.04 443.91 243.62 432.37 57.96 432.37" style="fill:#92E3A9"></polygon><polygon points="57.96 432.37 57.96 443.91 246.04 443.91 243.62 432.37 57.96 432.37" style="fill:#fff;opacity:0.81"></polygon><polygon points="57.96 432.37 57.96 443.91 246.04 443.91 243.62 432.37 57.96 432.37" style="fill:none;stroke:#263238;stroke-linecap:round;stroke-linejoin:round"></polygon><polyline points="113.5 432.64 113.23 438 111.89 443.64" style="fill:none;stroke:#263238;stroke-linecap:round;stroke-linejoin:round"></polyline><polyline points="122.35 443.37 122.62 437.74 124.77 432.64" style="fill:none;stroke:#263238;stroke-linecap:round;stroke-linejoin:round"></polyline><polyline points="207.67 432.37 209.28 436.66 212.77 444.18" style="fill:none;stroke:#263238;stroke-linecap:round;stroke-linejoin:round"></polyline><path d="M53.4,395.08H99.55l-3.76-5.91-13.68-4.29-7,.27s-5.1-2.15-5.9-2.42-5.64.81-5.64.81l-3,3.22L59,388.64Z" style="fill:#fff;stroke:#263238;stroke-linecap:round;stroke-linejoin:round"></path></g><g id="freepik--polar-bear--inject-39"><path d="M163.05,115.93s-12.08-4.27-13.73-.24S156,129,156,129Z" style="fill:#fff;stroke:#263238;stroke-linecap:round;stroke-linejoin:round"></path><path d="M163.29,111.19s-10.19,20.13-9.24,22.26,5,8.77,6.16,12.79S156,171.35,157.84,173s2.61,2.13,6.63,2.84,10.19,0,13-2.13,9-7.34,10.42-8.29,3.56-2.13,3.56-2.13-2.14,18,.23,27.47,10.9,31,10.9,31L221.79,219a55.25,55.25,0,0,1,.48-17.77,134.64,134.64,0,0,1,5.21-17.05l2.37.47s1.42,13.5,5.21,20.37,4.26,8.77,4.26,8.77-5.21,2.84-5,5.92-1.66,5,2.84,6.16,16.81-2.85,30.55-.24,30.56,8.76,34.82,7.11,6.63-.24,3.55-10.19-3.55-13.26-3.55-13.26,16.11-25.58,21.08-29.61,16.58-16.82,17.53-34.82,10.65-35.53-4.5-54.71S299,58.61,288.82,54.82s-25.1,2.37-36,7.1-12.32,5-12.32,5-23.21-5.45-30.79,2.37S180.58,101,178,103.37,163.76,106,163.29,111.19Z" style="fill:#fff"></path><path d="M330.05,127.72c-2.14-14-14.66.71-19.67,14.3s-17.52,16.45-19.31,17.17S260,166,257.46,166s-22.17-6.79-25-10-6.08-11.09-10-14.66-4.3-.72-6.08,4.22-11.8,10.8-15.74,10.08-12.87,6.08-12.87,6.08c-5.31,9.06-17.1,13.46-20,14.43,3.59,0,7.62-.79,9.77-2.4,2.84-2.13,9-7.34,10.42-8.29s3.56-2.13,3.56-2.13-2.14,18,.23,27.47,10.9,31,10.9,31L221.79,219a55.25,55.25,0,0,1,.48-17.77,134.64,134.64,0,0,1,5.21-17.05l2.37.47s1.42,13.5,5.21,20.37,4.26,8.77,4.26,8.77a15.81,15.81,0,0,0-3.43,2.61l9.54,8.63,2.73.27a67,67,0,0,1,19.58.33c3.06.58,6.26,1.33,9.45,2.14a44.28,44.28,0,0,0,7.09.11c3.57-.71,8.94,0,11.44,0s2.51-1.78,3.94-4.64,0-8.59-1.08-10.37-.71-3.22,0-6.08,1.43-3.94,2.86-6.8,5.72-10,12.16-19.67a94.75,94.75,0,0,0,11.09-21.45C327.19,152.39,332.2,141.66,330.05,127.72Z" style="opacity:0.15"></path><path d="M163.29,111.19s-10.19,20.13-9.24,22.26,5,8.77,6.16,12.79S156,171.35,157.84,173s2.61,2.13,6.63,2.84,10.19,0,13-2.13,9-7.34,10.42-8.29,3.56-2.13,3.56-2.13-2.14,18,.23,27.47,10.9,31,10.9,31L221.79,219a55.25,55.25,0,0,1,.48-17.77,134.64,134.64,0,0,1,5.21-17.05l2.37.47s1.42,13.5,5.21,20.37,4.26,8.77,4.26,8.77-5.21,2.84-5,5.92-1.66,5,2.84,6.16,16.81-2.85,30.55-.24,30.56,8.76,34.82,7.11,6.63-.24,3.55-10.19-3.55-13.26-3.55-13.26,16.11-25.58,21.08-29.61,16.58-16.82,17.53-34.82,10.65-35.53-4.5-54.71S299,58.61,288.82,54.82s-25.1,2.37-36,7.1-12.32,5-12.32,5-23.21-5.45-30.79,2.37S180.58,101,178,103.37,163.76,106,163.29,111.19Z" style="fill:none;stroke:#263238;stroke-linecap:round;stroke-linejoin:round"></path><path d="M226.7,225.82s-1.3-9.47-6.49-10-12.43.93-18,3.34-9.46,5.93-10.2,10.2.74,7.42,3.34,7.42,15.4-5.38,22.45-6.49S226.52,228.23,226.7,225.82Z" style="fill:#fff;stroke:#263238;stroke-linecap:round;stroke-linejoin:round"></path><path d="M198.34,112.85s8.06-9.71,12.56-8.06,1.66,13-.24,17.06" style="fill:none;stroke:#263238;stroke-linecap:round;stroke-linejoin:round"></path><path d="M201.19,115.22s5.4-10,9.67-8.8-1.62,13.77-1.62,13.77" style="fill:none;stroke:#263238;stroke-linecap:round;stroke-linejoin:round"></path><path d="M216.24,136.85c.74,2.87,1.07,6.07.1,8.68-2.36,6.4-6.15,8.77-6.15,8.77" style="fill:none;stroke:#263238;stroke-linecap:round;stroke-linejoin:round"></path><path d="M213.27,129.19s.59,1.09,1.3,2.77" style="fill:none;stroke:#263238;stroke-linecap:round;stroke-linejoin:round"></path><path d="M218.61,157.42a10.8,10.8,0,0,0,2.71-4.07" style="fill:none;stroke:#263238;stroke-linecap:round;stroke-linejoin:round"></path><path d="M193.61,162.35s8.29-1.42,12.08.24c2.13.93,6.21-.31,9.71-2.59" style="fill:none;stroke:#263238;stroke-linecap:round;stroke-linejoin:round"></path><path d="M186.26,137.24s.48-1.42-2.84-1.65-5,2.13-4,3.31,3.07.24,4.5,0S185.32,138.9,186.26,137.24Z" style="fill:#263238;stroke:#263238;stroke-linecap:round;stroke-linejoin:round"></path><path d="M163.76,139.85s-1.65-4-3.79-3.55S160.92,142.22,163.76,139.85Z" style="fill:#263238;stroke:#263238;stroke-linecap:round;stroke-linejoin:round"></path><path d="M167.08,176.32a71.1,71.1,0,0,0,8.29-3.31c2.6-1.42,2.84-4.27,5.45-5.45" style="fill:none;stroke:#263238;stroke-linecap:round;stroke-linejoin:round"></path><path d="M157.84,173s-1.18-2.84,1.66-3.32,10.66.71,10.9,3.08-.72,4-3.32,3.55S160.21,174.67,157.84,173Z" style="fill:#263238;stroke:#263238;stroke-linecap:round;stroke-linejoin:round"></path><path d="M209.75,174.75c3.78,2.92,9,6.53,13,7.73,7.11,2.13,19.42,1.19,19.42,1.19" style="fill:none;stroke:#263238;stroke-linecap:round;stroke-linejoin:round"></path><path d="M204.74,170.64s1.25,1.12,3.18,2.67" style="fill:none;stroke:#263238;stroke-linecap:round;stroke-linejoin:round"></path><path d="M319.11,137.7a36.08,36.08,0,0,0,2.75-6" style="fill:none;stroke:#263238;stroke-linecap:round;stroke-linejoin:round"></path><path d="M298.63,156.12a50.16,50.16,0,0,0,18.15-14.85" style="fill:none;stroke:#263238;stroke-linecap:round;stroke-linejoin:round"></path><path d="M237.66,156.9a38.39,38.39,0,0,1,6.87,4.74c2.84,2.6,7.58,3.55,7.58,3.55s-4,12.08-3.55,22-.24,26.05-.24,26.05-13,.29-17.46,2.18-8,4.25-6.57,9.93,4.61,5.42,8.63,5.42,13.27-.71,19.66.47,13.74,1.9,17.06-1.18,1.89-14.69,1.89-14.69,18.48-33.87,23.92-48.55,6.64-24.87,4.74-29.37-4.5-5.92-10.66-12.32-12.31-16.1-12.31-16.1S275.8,95.79,271.53,92" style="fill:#fff;stroke:#263238;stroke-linecap:round;stroke-linejoin:round"></path><path d="M279.64,159c2.14-3.07,3.85-6.33,4.68-7.75" style="fill:none;stroke:#263238;stroke-linecap:round;stroke-linejoin:round"></path><path d="M252.11,165.19s15.4,1.9,20.37.48a10.91,10.91,0,0,0,4.68-3.48" style="fill:none;stroke:#263238;stroke-linecap:round;stroke-linejoin:round"></path><path d="M250.46,215.45s-9.15-.26-11.47,1.16-2.45,10.83-1.16,12.38" style="fill:none;stroke:#263238;stroke-linecap:round;stroke-linejoin:round"></path><path d="M237.31,214.55s-6.7,1.55-7.22,3.74-.13,10.06,2.06,11.6" style="fill:none;stroke:#263238;stroke-linecap:round;stroke-linejoin:round"></path><path d="M245.31,221.38s-3.61-.77-4.52.65-.77,4,0,5.8,2.19,1.94,2.32,1a6.7,6.7,0,0,1,2.32-3.87A2.22,2.22,0,0,0,245.31,221.38Z" style="fill:#263238;stroke:#263238;stroke-linecap:round;stroke-linejoin:round"></path><path d="M234.71,220.37s-3.68-.29-4.39,1.24-.23,4.06.77,5.75,2.43,1.62,2.44.71a6.63,6.63,0,0,1,1.79-4.14A2.22,2.22,0,0,0,234.71,220.37Z" style="fill:#263238;stroke:#263238;stroke-linecap:round;stroke-linejoin:round"></path><path d="M227.8,221.23s-3.09.15-3.51,1.49a5.85,5.85,0,0,0,1.24,4.7c1,1.3,2.2,1.09,2.11.34a5.56,5.56,0,0,1,1-3.63A1.86,1.86,0,0,0,227.8,221.23Z" style="fill:#263238;stroke:#263238;stroke-linecap:round;stroke-linejoin:round"></path><path d="M276.38,209.91s10.71,7.86,20.25,8" style="fill:none;stroke:#263238;stroke-linecap:round;stroke-linejoin:round"></path><path d="M202.21,219.14a8.05,8.05,0,0,0-1.8,6.25c.58,3.67,1.49,7.8,3.22,8.25" style="fill:none;stroke:#263238;stroke-linecap:round;stroke-linejoin:round"></path><path d="M211.08,216.67s-2.29,3.55-1.37,6.54,2.52,7.22,4.47,7.45" style="fill:none;stroke:#263238;stroke-linecap:round;stroke-linejoin:round"></path><path d="M216,221.6s-2.06-1.15-2.63,1.72,1.49,5.39,2.63,5.51l1.15.11a2.91,2.91,0,0,1-.34-1.83c.23-.81,1.49-2.3,1.14-3.79A2.41,2.41,0,0,0,216,221.6Z" style="fill:#263238;stroke:#263238;stroke-linecap:round;stroke-linejoin:round"></path><path d="M204.31,224.81s-1.95.58-1.95,1.95a4.71,4.71,0,0,0,2.3,3.79,17.06,17.06,0,0,0,2,1s.11-1.38.11-2.29.92-1.95.12-3.45S205.92,224.12,204.31,224.81Z" style="fill:#263238;stroke:#263238;stroke-linecap:round;stroke-linejoin:round"></path><path d="M196.63,227.57s-1.95.57-1.95,2A4.71,4.71,0,0,0,197,233.3a18.24,18.24,0,0,0,1.95,1S199,233,199,232s.91-1.95.11-3.44S198.23,226.88,196.63,227.57Z" style="fill:#263238;stroke:#263238;stroke-linecap:round;stroke-linejoin:round"></path></g></svg>