<svg style="height: 512px; width: 512px;" xmlns="http://www.w3.org/2000/svg" viewBox="0 0 512 512"><path d="M0 0h512v512H0z" fill="#ffffff" fill-opacity="1"></path><g class="" style="" transform="translate(5,0)"><g transform="translate(0, 0) scale(1, 1) rotate(-540, 256, 256) skewX(0) skewY(0)"><path d="M88.418 17.17L22.298 492.412L41.164 492.412L107.284 17.17L88.42 17.17Z" class="" fill="#d0021b" fill-opacity="1"></path><path d="M404.118 17.17L470.141 492.412L489.011 492.412L422.988 17.17L404.118 17.17Z" class="" fill="#d0021b" fill-opacity="1"></path><path d="M347.858 17.41L215.436 17.78C156.093 59.286 137.111 115.762 153.84 185.81C131.516 154.47 121.093 122.562 120.25 87.576L93.566 279.356C94.616 275.716 95.816 272.046 97.219 268.344L93.376 280.729L88.442 316.183C88.852 354.137 107.056 385.599 129.352 403.589C110.832 396.815 93.997 388.302 80.102 376.144L70.895 442.296C113.927 462.931 159.509 466.642 191.455 460.076C157.913 478.889 120.111 489.504 66.073 476.962L63.943 492.262L281.511 492.262C355.175 477.747 398.829 436.645 410.556 403.046C414.096 433.614 407.802 463.139 373.083 492.261L446.325 492.261L404.772 193.151C389.546 157.844 353.666 134.029 330.077 133.433C340.953 129.818 351.692 127.515 362.382 127.653C373.992 127.803 385.542 130.853 397.142 138.213L392.935 107.935C371.57 88.977 346.463 76.912 324.015 71.981C330.555 71.504 337.058 71.251 343.528 71.296C358.758 71.4 373.801 73.164 388.708 77.506L384.484 47.108C331.8 45.105 287.813 60.384 263.44 79.407C277.12 55.857 307.973 31.727 347.857 17.409Z" class="" fill="#1d1cf8" fill-opacity="1" stroke="#f8e71c" stroke-opacity="1" stroke-width="8"></path><path d="M266.535 50.475C197.75 87.56 194.665 132.735 230.435 172.621C222.809 103.101 311.375 62.605 349.395 113.589C308.528 93.419 271.605 121.429 273.185 161.312C296.419 137.315 371.863 148.045 352.98 197.502C341.68 164.205 296.24 167.408 289.332 183.732C274.582 218.598 353.672 198.314 387.449 250.016C368.599 239.141 339.709 250.498 348.229 264.606C380.509 318.056 432.759 377.791 361.529 411.631C385.099 372.954 372.315 345.897 339.679 330.201C365.323 396.945 334.579 493.918 235.869 463.391C298.699 451.949 314.224 400.815 293.132 379.966C269.515 440.336 170.992 477.14 111.688 418.419C170.381 440.954 210.973 425.729 232.332 392.029C196.442 413.464 136.957 398.962 118.338 349.052C147.032 378.239 185.44 387.015 209.533 369.408C222.75 359.75 217.836 344.348 200.983 340.006C176.453 333.686 138.995 327.154 124.42 303.418C146.142 309.421 167.864 314.116 189.586 300.043C155.601 277.973 108.04 249.293 139.238 199.765C140.246 234.915 156.468 256.322 192.435 248.019C201.72 245.877 209.235 232.547 200.985 224.646C139.847 166.106 153.405 64.24 266.533 50.478Z" class="selected" fill="#d0021b" fill-opacity="1"></path></g></g></svg>