<svg style="height: 512px; width: 512px;" xmlns="http://www.w3.org/2000/svg" viewBox="0 0 512 512"><defs><filter id="shadow-2" height="300%" width="300%" x="-100%" y="-100%"><feFlood flood-color="rgba(139, 87, 42, 1)" result="flood"></feFlood><feComposite in="flood" in2="SourceGraphic" operator="atop" result="composite"></feComposite><feGaussianBlur in="composite" stdDeviation="15" result="blur"></feGaussianBlur><feOffset dx="0" dy="0" result="offset"></feOffset><feComposite in="SourceGraphic" in2="offset" operator="over"></feComposite></filter><filter id="shadow-3" height="300%" width="300%" x="-100%" y="-100%"><feFlood flood-color="rgba(139, 87, 42, 1)" result="flood"></feFlood><feComposite in="flood" in2="SourceGraphic" operator="atop" result="composite"></feComposite><feGaussianBlur in="composite" stdDeviation="15" result="blur"></feGaussianBlur><feOffset dx="0" dy="0" result="offset"></feOffset><feComposite in="SourceGraphic" in2="offset" operator="over"></feComposite></filter><filter id="shadow-4" height="300%" width="300%" x="-100%" y="-100%"><feFlood flood-color="rgba(139, 87, 42, 1)" result="flood"></feFlood><feComposite in="flood" in2="SourceGraphic" operator="atop" result="composite"></feComposite><feGaussianBlur in="composite" stdDeviation="15" result="blur"></feGaussianBlur><feOffset dx="0" dy="0" result="offset"></feOffset><feComposite in="SourceGraphic" in2="offset" operator="over"></feComposite></filter><filter id="shadow-5" height="300%" width="300%" x="-100%" y="-100%"><feFlood flood-color="rgba(139, 87, 42, 1)" result="flood"></feFlood><feComposite in="flood" in2="SourceGraphic" operator="atop" result="composite"></feComposite><feGaussianBlur in="composite" stdDeviation="15" result="blur"></feGaussianBlur><feOffset dx="0" dy="0" result="offset"></feOffset><feComposite in="SourceGraphic" in2="offset" operator="over"></feComposite></filter><filter id="shadow-6" height="300%" width="300%" x="-100%" y="-100%"><feFlood flood-color="rgba(139, 87, 42, 1)" result="flood"></feFlood><feComposite in="flood" in2="SourceGraphic" operator="atop" result="composite"></feComposite><feGaussianBlur in="composite" stdDeviation="15" result="blur"></feGaussianBlur><feOffset dx="0" dy="0" result="offset"></feOffset><feComposite in="SourceGraphic" in2="offset" operator="over"></feComposite></filter><filter id="shadow-7" height="300%" width="300%" x="-100%" y="-100%"><feFlood flood-color="rgba(139, 87, 42, 1)" result="flood"></feFlood><feComposite in="flood" in2="SourceGraphic" operator="atop" result="composite"></feComposite><feGaussianBlur in="composite" stdDeviation="15" result="blur"></feGaussianBlur><feOffset dx="0" dy="0" result="offset"></feOffset><feComposite in="SourceGraphic" in2="offset" operator="over"></feComposite></filter><filter id="shadow-8" height="300%" width="300%" x="-100%" y="-100%"><feFlood flood-color="rgba(139, 87, 42, 1)" result="flood"></feFlood><feComposite in="flood" in2="SourceGraphic" operator="atop" result="composite"></feComposite><feGaussianBlur in="composite" stdDeviation="15" result="blur"></feGaussianBlur><feOffset dx="0" dy="0" result="offset"></feOffset><feComposite in="SourceGraphic" in2="offset" operator="over"></feComposite></filter><filter id="shadow-9" height="300%" width="300%" x="-100%" y="-100%"><feFlood flood-color="rgba(139, 87, 42, 1)" result="flood"></feFlood><feComposite in="flood" in2="SourceGraphic" operator="atop" result="composite"></feComposite><feGaussianBlur in="composite" stdDeviation="15" result="blur"></feGaussianBlur><feOffset dx="0" dy="0" result="offset"></feOffset><feComposite in="SourceGraphic" in2="offset" operator="over"></feComposite></filter></defs><path d="M0 0h512v512H0z" fill="#422a02" fill-opacity="1"></path><g class="" style="" transform="translate(0,5)"><g transform="translate(512, 512) scale(-1, -1) rotate(270, 256, 256) skewX(0) skewY(0)"><path d="M388.53 21.53C350.524 52.076 325.038 87.652 304.578 125.217C317.324 133.029 330.165 140.14 343.094 146.597L431.838 180.637C445.584 184.437 459.421 187.632 473.348 190.262C486.841 147.354 493.22 104.438 492.781 61.532L388.531 21.532Z" class="" fill="#8b572a" fill-opacity="1" stroke="#8b572a" stroke-opacity="1" stroke-width="1" filter="url(#shadow-2)"></path><path d="M121.717 25.41L136.85 90.377L205.8 106.757L192.807 42.232L121.717 25.41Z" class="" fill="#8b572a" fill-opacity="1" filter="url(#shadow-3)"></path><path d="M104.123 32.258L66.896 79.803L79.254 141.828L118.748 95.043L104.123 32.258Z" class="" fill="#8b572a" fill-opacity="1" filter="url(#shadow-4)"></path><path d="M131.906 108.406L94.812 152.376L146.977 160.094C154.22 157.984 161.459 155.997 168.693 154.127L196.313 123.719L131.906 108.405Z" class="" fill="#8b572a" fill-opacity="1" stroke="#8b572a" stroke-opacity="1" stroke-width="2" filter="url(#shadow-5)"></path><path d="M302.476 145.752L311.252 204.664C317.162 210.724 322.888 216.92 328.382 223.279L417.406 257.436L462.723 207.218C408.003 196.118 354.413 176.398 302.475 145.75Z" class="selected" fill="#8b572a" fill-opacity="1" filter="url(#shadow-6)" stroke="#8b572a" stroke-opacity="1" stroke-width="8"></path><path d="M232.386 159.234C183.062 168.584 134.051 181.134 85.162 201.879C125.987 236.757 162.01 274.243 191.15 315.417L340.354 270.731C313.821 228.869 274.352 193.711 232.384 159.233Z" class="" fill="#8b572a" fill-opacity="1" filter="url(#shadow-7)"></path><path d="M65.71 209.848C45.093 260.13 28.07 311.115 24.24 367.025C48.775 419.917 94.442 457.648 135.004 486.745L177.48 328.295C147.505 285.442 109.43 246.353 65.71 209.848Z" class="" fill="#8b572a" fill-opacity="1" filter="url(#shadow-8)"></path><path d="M351.07 287.03L195.39 333.66L153.244 490.88C205.411 483.026 257.234 469.007 309.066 442.62C334.018 389.1 339.57 342.892 351.068 287.033Z" class="" fill="#8b572a" fill-opacity="1" filter="url(#shadow-9)"></path></g></g></svg>