<svg style="height: 512px; width: 512px;" xmlns="http://www.w3.org/2000/svg" viewBox="0 0 512 512"><defs><filter id="shadow-2" height="300%" width="300%" x="-100%" y="-100%"><feFlood flood-color="rgba(243, 6, 6, 1)" result="flood"></feFlood><feComposite in="flood" in2="SourceGraphic" operator="atop" result="composite"></feComposite><feGaussianBlur in="composite" stdDeviation="15" result="blur"></feGaussianBlur><feOffset dx="0" dy="0" result="offset"></feOffset><feComposite in="SourceGraphic" in2="offset" operator="over"></feComposite></filter><filter id="shadow-3" height="300%" width="300%" x="-100%" y="-100%"><feFlood flood-color="rgba(243, 2, 2, 1)" result="flood"></feFlood><feComposite in="flood" in2="SourceGraphic" operator="atop" result="composite"></feComposite><feGaussianBlur in="composite" stdDeviation="15" result="blur"></feGaussianBlur><feOffset dx="0" dy="0" result="offset"></feOffset><feComposite in="SourceGraphic" in2="offset" operator="over"></feComposite></filter><filter id="shadow-4" height="300%" width="300%" x="-100%" y="-100%"><feFlood flood-color="rgba(21, 11, 223, 1)" result="flood"></feFlood><feComposite in="flood" in2="SourceGraphic" operator="atop" result="composite"></feComposite><feGaussianBlur in="composite" stdDeviation="15" result="blur"></feGaussianBlur><feOffset dx="0" dy="0" result="offset"></feOffset><feComposite in="SourceGraphic" in2="offset" operator="over"></feComposite></filter><filter id="shadow-5" height="300%" width="300%" x="-100%" y="-100%"><feFlood flood-color="rgba(168, 0, 23, 1)" result="flood"></feFlood><feComposite in="flood" in2="SourceGraphic" operator="atop" result="composite"></feComposite><feGaussianBlur in="composite" stdDeviation="15" result="blur"></feGaussianBlur><feOffset dx="0" dy="0" result="offset"></feOffset><feComposite in="SourceGraphic" in2="offset" operator="over"></feComposite></filter><radialGradient id="lorc-unstable-projectile-gradient-0"><stop offset="0%" stop-color="#f8e71c" stop-opacity="1"></stop><stop offset="100%" stop-color="#000000" stop-opacity="1"></stop></radialGradient></defs><path d="M0 0h512v512H0z" fill="url(#lorc-unstable-projectile-gradient-0)"></path><g class="" style="" transform="translate(3,1)"><g transform="translate(512, 512) scale(-1, -1) rotate(0, 256, 256) skewX(0) skewY(0)"><path d="M120.375 22.47C208.925 65.15 278.075 111.308 331.813 177.25C247.84 102.894 134.438 59.955 21.97 28.53L21.97 123.625C88.025 151.983 187.695 221.877 213.22 268.375C161.584 216.489 91.04 187.185 21.97 165.969L21.97 253.499C97.395 276.485 170.414 315.286 213.875 401.562C233.625 457.505 287.025 497.687 349.655 497.687C429.045 497.687 493.595 433.137 493.595 353.749C493.595 308.157 472.288 267.459 439.125 241.061C431.301 230.616 423.52 220.627 415.781 211.031C421.468 205.377 425.001 197.556 425.001 188.905C425.001 171.665 411.021 157.685 393.781 157.685C386.804 157.685 380.356 160.005 375.157 163.875C310.807 94.315 249.425 51.662 190.657 22.468L120.377 22.468Z" class="selected" fill="#f8e71c" fill-opacity="1" filter="url(#shadow-2)" stroke="#2403b1" stroke-opacity="1" stroke-width="1"></path><path d="M369.97 68.124C358.382 68.124 348.97 77.506 348.97 89.094C348.97 100.68 358.382 110.094 369.97 110.094C381.556 110.094 390.937 100.68 390.937 89.094C390.937 77.504 381.557 68.124 369.969 68.124Z" class="" fill="#1106db" fill-opacity="1" filter="url(#shadow-3)"></path><path d="M467.187 193.594C457.014 193.594 448.781 201.856 448.781 212.03C448.781 222.205 457.015 230.437 467.189 230.437C477.362 230.437 485.626 222.205 485.626 212.031C485.626 201.857 477.362 193.595 467.188 193.595Z" class="" fill="#d0021b" fill-opacity="1" filter="url(#shadow-4)"></path><path d="M335.563 229.28L340.251 254.062L288.876 267.062L350.376 346.687L341.72 285.907L391.625 282.281L395.031 236.971C427.273 249.471 452.991 274.893 465.876 306.939L460.376 326.407L411.188 311.22L474.375 365C472.945 381.137 468.478 396.376 461.531 410.156L429.314 395.656L346.564 454.186L413.22 428.938L438.22 442.375C415.57 465.008 384.283 479 349.655 479C287.913 479 236.721 434.55 226.311 375.844L271.936 415.656L295.468 384.936L322.092 418.719L415.717 360.374L375.809 317.404L376.309 358.844L329.247 375.749L285.747 320.969L276.027 358.343L231.153 313.03C246.553 268.063 286.78 234.723 335.559 229.28Z" class="" fill="#8b572a" fill-opacity="1" filter="url(#shadow-5)" stroke="#0c08f3" stroke-opacity="1" stroke-width="2"></path></g></g></svg>