<svg style="height: 512px; width: 512px;" xmlns="http://www.w3.org/2000/svg" viewBox="0 0 512 512"><path d="M0 0h512v512H0z" fill="#9013fe" fill-opacity="1"></path><g class="" style="" transform="translate(4,-1)"><g><path d="M203.75 20.47C202.74 20.486 201.725 20.526 200.72 20.563C130.93 23.073 67.948 69.931 48.938 140.875C37.903 182.071 62.493 224.695 103.656 235.75L103.656 235.72C144.822 246.75 186.628 222.073 197.626 181.03C205.549 151.45 220.479 130.198 241.25 118.875C262.02 107.552 287.59 106.555 315.375 114C325.838 116.807 335.352 121.03 343.938 126.656C348.306 124.38 352.84 122.426 357.531 120.813C348.906 99.927 336.217 80.959 319.781 65.406L319.751 65.406C319.687 65.346 319.628 65.279 319.564 65.219C300.554 47.279 276.817 33.451 249.657 26.155C234.307 22.039 218.889 20.202 203.751 20.468Z" class="" fill="#fc88fc" fill-opacity="1"></path><path d="M124.72 103.438C139.318 103.438 153.92 108.983 165 120.062C187.174 142.237 187.128 178.465 164.97 200.625L162.25 203.345L161.938 203.345C139.608 222.683 105.593 221.812 84.406 200.625C62.232 178.451 62.246 142.222 84.406 120.062C95.494 108.975 110.119 103.436 124.719 103.438Z" class="" fill="#ffffff" fill-opacity="1"></path><path d="M124.72 122C114.94 121.998 105.14 125.734 97.625 133.25C82.607 148.268 82.595 172.376 97.625 187.406C112.642 202.423 136.75 202.438 151.781 187.406C166.801 172.388 166.813 148.28 151.781 133.25C144.274 125.74 134.499 122.002 124.721 122Z" class="" fill="#ffffff" fill-opacity="1" stroke="#fc88fc" stroke-opacity="1" stroke-width="8"></path><path d="M268.063 129.063C261.553 130.248 255.587 132.338 250.188 135.281C245.771 137.691 241.655 140.694 237.844 144.376C260.858 144.424 283.847 151.252 303.624 164.814C306.636 159.312 310.254 154.056 314.469 149.126C300.169 139.379 284.389 132.688 268.061 129.063Z" class="" fill="#fc88fc" fill-opacity="1"></path><path d="M387.781 134.406C367.733 134.41 347.697 141.928 332.657 156.969C302.599 187.026 303.867 235.859 333.97 265.937C355.646 287.597 366.597 311.272 366 334.999C365.402 358.726 353.446 381.429 333.094 401.779C323.224 411.651 311.894 418.147 300.219 422.624C299.679 426.204 298.839 429.677 297.905 433.124C348.345 442.181 401.862 427.424 441.185 388.124C505.155 324.181 506.845 220.848 442.937 156.968C427.883 141.914 407.829 134.4 387.78 134.404Z" class="" fill="#fc88fc" fill-opacity="1"></path><path d="M386.721 155.812C401.319 155.814 415.921 161.358 427.001 172.437C449.175 194.612 449.161 230.84 427.001 253C404.826 275.175 368.598 275.16 346.438 253C324.264 230.826 324.278 194.597 346.438 172.437C357.526 161.35 372.12 155.81 386.72 155.812Z" class="" fill="#ffffff" fill-opacity="1"></path><path d="M386.721 174.375C376.941 174.373 367.173 178.141 359.657 185.655C344.64 200.675 344.627 224.751 359.657 239.781C374.674 254.799 398.751 254.814 413.782 239.781C428.802 224.764 428.814 200.688 413.782 185.657C406.275 178.149 396.5 174.377 386.722 174.377Z" class="selected" fill="#ffffff" fill-opacity="1" stroke="#fc88fc" stroke-opacity="1" stroke-width="8"></path><path d="M239.471 189.405C230.448 189.405 221.426 191.12 212.907 194.5C204.697 216.623 188.891 234.29 169.282 245.125C163.842 268.523 170.249 294.09 188.532 312.375C189.32 313.161 190.127 313.915 190.939 314.655C212.899 311.2 234.796 315.478 253.314 325.813L254.082 326.129L261.408 330.061C271.988 326.671 281.96 320.791 290.378 312.374C302.788 299.964 309.74 284.194 311.221 268.03C299.081 251.583 292.663 232.05 292.188 212.438C291.592 211.798 291 211.155 290.376 210.531C276.284 196.441 257.883 189.407 239.47 189.407Z" class="" fill="#fc88fc" fill-opacity="1"></path><path d="M53.687 225.72C23.988 264.33 12.275 315.815 26 367.03C49.394 454.395 138.104 507.322 225.375 483.938C225.385 483.935 225.395 483.941 225.405 483.938C266.541 472.878 291.531 429.732 280.531 388.625C276.425 373.298 267.945 360.323 256.813 350.75L256.595 350.562C237.823 334.554 211.395 327.922 185.688 334.812C156.112 342.745 130.131 340.478 109.845 328.187C89.558 315.897 75.828 294.275 68.375 266.469C65.637 256.202 64.978 246.013 65.532 236.311C61.309 233.104 57.364 229.586 53.689 225.718Z" class="" fill="#fc88fc" fill-opacity="1"></path><path d="M102.499 254.688C101.665 271.393 103.902 288.216 109.249 304.25C112.447 307.344 115.872 310.002 119.529 312.22C124.384 315.16 129.722 317.412 135.593 318.875C124.803 299.765 119.815 278.275 120.623 256.969C114.619 256.795 108.563 256.057 102.499 254.686Z" class="" fill="#fc88fc" fill-opacity="1"></path><path d="M343.279 311.781C337.693 323.491 330.049 334.483 320.343 344.189C311.633 352.899 301.898 359.952 291.53 365.345C294.365 370.937 296.685 376.879 298.406 383.125C311.202 376.805 323.196 368.335 333.844 357.688C338.429 353.103 342.616 348.27 346.406 343.22C346.928 340.312 347.24 337.418 347.312 334.53C347.502 327.065 346.236 319.485 343.282 311.78Z" class="" fill="#fc88fc" fill-opacity="1"></path><path d="M203.279 351.689C217.879 351.691 232.482 357.234 243.561 368.314C265.736 390.488 265.721 426.716 243.561 448.876C221.387 471.051 185.158 471.036 162.999 448.876C140.825 426.702 140.839 390.473 162.999 368.313C174.086 357.226 188.681 351.686 203.279 351.688Z" class="" fill="#ffffff" fill-opacity="1"></path><path d="M203.279 370.251C193.501 370.249 183.733 374.017 176.219 381.531C161.199 396.551 161.187 420.627 176.219 435.657C191.235 450.674 215.311 450.689 230.343 435.657C245.36 420.639 245.373 396.563 230.343 381.532C222.833 374.025 213.06 370.254 203.28 370.252Z" class="" fill="#ffffff" fill-opacity="1" stroke="#fc88fc" stroke-opacity="1" stroke-width="8"></path></g></g></svg>