<svg style="height: 512px; width: 512px;" xmlns="http://www.w3.org/2000/svg" viewBox="0 0 512 512"><defs><filter id="shadow-2" height="300%" width="300%" x="-100%" y="-100%"><feFlood flood-color="rgba(243, 6, 6, 1)" result="flood"></feFlood><feComposite in="flood" in2="SourceGraphic" operator="atop" result="composite"></feComposite><feGaussianBlur in="composite" stdDeviation="15" result="blur"></feGaussianBlur><feOffset dx="0" dy="0" result="offset"></feOffset><feComposite in="SourceGraphic" in2="offset" operator="over"></feComposite></filter><filter id="shadow-3" height="300%" width="300%" x="-100%" y="-100%"><feFlood flood-color="rgba(243, 2, 2, 1)" result="flood"></feFlood><feComposite in="flood" in2="SourceGraphic" operator="atop" result="composite"></feComposite><feGaussianBlur in="composite" stdDeviation="15" result="blur"></feGaussianBlur><feOffset dx="0" dy="0" result="offset"></feOffset><feComposite in="SourceGraphic" in2="offset" operator="over"></feComposite></filter><filter id="shadow-4" height="300%" width="300%" x="-100%" y="-100%"><feFlood flood-color="rgba(21, 11, 223, 1)" result="flood"></feFlood><feComposite in="flood" in2="SourceGraphic" operator="atop" result="composite"></feComposite><feGaussianBlur in="composite" stdDeviation="15" result="blur"></feGaussianBlur><feOffset dx="0" dy="0" result="offset"></feOffset><feComposite in="SourceGraphic" in2="offset" operator="over"></feComposite></filter><filter id="shadow-5" height="300%" width="300%" x="-100%" y="-100%"><feFlood flood-color="rgba(168, 0, 23, 1)" result="flood"></feFlood><feComposite in="flood" in2="SourceGraphic" operator="atop" result="composite"></feComposite><feGaussianBlur in="composite" stdDeviation="15" result="blur"></feGaussianBlur><feOffset dx="0" dy="0" result="offset"></feOffset><feComposite in="SourceGraphic" in2="offset" operator="over"></feComposite></filter><radialGradient id="lorc-thrown-charcoal-gradient-0"><stop offset="0%" stop-color="#f8e71c" stop-opacity="1"></stop><stop offset="100%" stop-color="#6b380b" stop-opacity="1"></stop></radialGradient></defs><path d="M0 0h512v512H0z" fill="url(#lorc-thrown-charcoal-gradient-0)"></path><g class="" style="" transform="translate(4,1)"><g transform="translate(512, 512) scale(-1, -1) rotate(540, 256, 256) skewX(0) skewY(0)"><path d="M176.938 16.313C128.248 16.317 75.876 24.726 20.656 39.5C111.178 21.215 247.032 40.197 358.844 145.094C285.054 94.481 208.891 69.976 136.094 68.094C187.414 81.658 238.782 106.082 287.314 142.719C195.68 93.44 104.173 80.47 21.78 95.655C69.87 106.245 119.633 127.181 168.72 160.718C134.382 148.472 100.14 141.448 66.28 137.218C135.448 162.548 201.763 209.322 256.03 278.936C189.955 216.394 117.413 180.8 44.94 167.53C106.488 200.36 146.546 242.246 181.096 302.75C153.954 279.318 125.224 259.837 95.971 243.656C117.801 264.412 138.644 288.754 157.971 316.562C141.376 302.238 120.281 291.872 93.876 285.594C129.474 316.432 143.11 354.311 165.626 393.314C286.528 602.72 566.771 447.554 464.782 214.844C401.815 71.17 301.368 16.3 176.94 16.314Z" class="" fill="#261702" fill-opacity="1" stroke="#2403b1" stroke-opacity="1" stroke-width="1" filter="url(#shadow-2)"></path><path d="M389.844 136.47L381.906 189.156L341.25 165.312L389.844 136.469Z" class="" fill="#1106db" fill-opacity="1" filter="url(#shadow-3)"></path><path d="M253.5 168.655L326.563 185.655L275.5 232.72L239.47 212.688L253.5 168.656Z" class="" fill="#d0021b" fill-opacity="1" filter="url(#shadow-4)"></path><path d="M416.625 210.685L456.47 303L388.656 298.937L384.936 298.719L382.094 301.093L328.124 346.343L309.031 320.873L312.531 235.718L416.626 210.686Z" class="" fill="#8b572a" fill-opacity="1" stroke="#0c08f3" stroke-opacity="1" stroke-width="2" filter="url(#shadow-5)"></path><path d="M280.625 265.03L288.219 313.53L287.561 314.03L259.218 304.875L280.623 265.031Z" class="selected" fill="#0e0eba" fill-opacity="1"></path><path d="M200.812 289.438L245.969 328.656L200.279 340.594L200.811 289.438Z" class="" fill="#d0081f" fill-opacity="1"></path><path d="M404.125 318.594L457.655 321.814L434.655 390.062L404.125 318.594Z" class="" fill="#ed0b0b" fill-opacity="1"></path><path d="M385.5 322.594L421.28 406.344L378.594 413.874L387.624 447.906L310.031 470.436L240.471 434.906L226.471 352.812L296.781 335.687L317.907 363.844L311.845 429.75L330.47 431.47L336.72 363.53L385.5 322.594Z" class="" fill="#f4ff0c" fill-opacity="1"></path></g></g></svg>