<svg style="height: 512px; width: 512px;" xmlns="http://www.w3.org/2000/svg" viewBox="0 0 512 512"><defs><filter id="shadow-2" height="300%" width="300%" x="-100%" y="-100%"><feFlood flood-color="rgba(243, 6, 6, 1)" result="flood"></feFlood><feComposite in="flood" in2="SourceGraphic" operator="atop" result="composite"></feComposite><feGaussianBlur in="composite" stdDeviation="15" result="blur"></feGaussianBlur><feOffset dx="0" dy="0" result="offset"></feOffset><feComposite in="SourceGraphic" in2="offset" operator="over"></feComposite></filter><filter id="shadow-3" height="300%" width="300%" x="-100%" y="-100%"><feFlood flood-color="rgba(243, 2, 2, 1)" result="flood"></feFlood><feComposite in="flood" in2="SourceGraphic" operator="atop" result="composite"></feComposite><feGaussianBlur in="composite" stdDeviation="15" result="blur"></feGaussianBlur><feOffset dx="0" dy="0" result="offset"></feOffset><feComposite in="SourceGraphic" in2="offset" operator="over"></feComposite></filter><filter id="shadow-4" height="300%" width="300%" x="-100%" y="-100%"><feFlood flood-color="rgba(21, 11, 223, 1)" result="flood"></feFlood><feComposite in="flood" in2="SourceGraphic" operator="atop" result="composite"></feComposite><feGaussianBlur in="composite" stdDeviation="15" result="blur"></feGaussianBlur><feOffset dx="0" dy="0" result="offset"></feOffset><feComposite in="SourceGraphic" in2="offset" operator="over"></feComposite></filter><filter id="shadow-5" height="300%" width="300%" x="-100%" y="-100%"><feFlood flood-color="rgba(168, 0, 23, 1)" result="flood"></feFlood><feComposite in="flood" in2="SourceGraphic" operator="atop" result="composite"></feComposite><feGaussianBlur in="composite" stdDeviation="15" result="blur"></feGaussianBlur><feOffset dx="0" dy="0" result="offset"></feOffset><feComposite in="SourceGraphic" in2="offset" operator="over"></feComposite></filter><radialGradient id="lorc-unfriendly-fire-gradient-0"><stop offset="0%" stop-color="#f8e71c" stop-opacity="1"></stop><stop offset="100%" stop-color="#38030a" stop-opacity="1"></stop></radialGradient></defs><path d="M0 0h512v512H0z" fill="url(#lorc-unfriendly-fire-gradient-0)"></path><g class="" style="" transform="translate(4,1)"><g transform="translate(512, 512) scale(-1, -1) rotate(540, 256, 256) skewX(0) skewY(0)"><path d="M132.28 19.97C94.364 19.96 56.6 26.472 24.03 40.343C130.386 24.023 212.345 67.758 224.844 136.749C230.262 166.653 187.214 188.037 153.594 214.562C156.059 201.148 160.95 188.94 164.938 176.28C150.741 190.38 138.058 205.222 129.781 222.25C123.349 202.15 119.758 182.04 115.063 161.937C109.303 200.417 106.895 238.897 116.001 277.375C116.121 278.598 116.257 279.843 116.471 281.095C127.3 344.73 183.5 404.46 244.155 443.436C223.471 439.339 204.442 432.526 184.843 426.656C207.236 443.242 230.559 458.316 256.623 468.906C238.006 468.766 219.67 467.924 201.155 467.53C257.705 483.767 316.002 495.717 381.468 490C419.631 489.262 448.308 474.694 466.873 454.187L460.935 437.844L408.405 460.969L392.811 467.843L395.406 451L398.312 432L342.25 454L321.375 462.22L330.281 441.625L341.126 416.469C326.646 418.802 310.028 419.679 292.656 416.969C267.85 413.094 241.736 401.849 221.439 378.061C248.919 394.916 280.619 400.171 310.782 399.905C310.825 399.907 310.867 399.905 310.908 399.905C327.254 400.415 342.664 397.905 354.283 394.625L373.191 389.28L365.409 407.313L356.315 428.406L406.597 408.656L421.722 402.75L419.252 418.78L416.472 437L462.532 416.72L471.658 412.72L475.096 422.094L480.066 435.781C489.582 418.595 493.449 399.363 491.408 381.251L461.628 385.314L481.783 351.376C475.72 340.812 466.916 331.603 455.283 324.72C455.22 324.68 455.161 324.63 455.097 324.594C422.362 301.139 385.524 293.022 347.659 288.719L366.439 306.593C332.716 301.123 298.826 287.995 301.316 264.563C291.993 279.71 299.078 297.04 312.941 312.53C281.015 304.132 271.377 281.103 280.034 249.313C285.674 228.601 305.958 216.463 322.004 200.063L322.034 200.031C351.812 174.301 368.831 141.224 382.598 106.251C374.976 114.383 367.708 122.684 359.973 130.751C365.736 94.141 358.338 59.391 347.253 25.157C344.459 47.135 343.329 68.871 336.783 91.377C328.8 74.173 315.744 59.227 301.126 45C306.22 58.018 312.376 70.574 314.814 84.78C276.367 43.415 204.066 19.98 132.282 19.97Z" class="selected" fill="#f8e71c" fill-opacity="1" stroke="#2403b1" stroke-opacity="1" stroke-width="1" filter="url(#shadow-2)"></path><path d="M380.906 342.78L437.906 386.25L388.781 382.812L380.907 342.782Z" class="" fill="#1106db" fill-opacity="1" filter="url(#shadow-3)"></path></g></g></svg>