<svg style="height: 512px; width: 512px;" xmlns="http://www.w3.org/2000/svg" viewBox="0 0 512 512"><defs><filter id="shadow-2" height="300%" width="300%" x="-100%" y="-100%"><feFlood flood-color="rgba(126, 211, 33, 1)" result="flood"></feFlood><feComposite in="flood" in2="SourceGraphic" operator="atop" result="composite"></feComposite><feGaussianBlur in="composite" stdDeviation="15" result="blur"></feGaussianBlur><feOffset dx="0" dy="0" result="offset"></feOffset><feComposite in="SourceGraphic" in2="offset" operator="over"></feComposite></filter><filter id="shadow-3" height="300%" width="300%" x="-100%" y="-100%"><feFlood flood-color="rgba(126, 211, 33, 1)" result="flood"></feFlood><feComposite in="flood" in2="SourceGraphic" operator="atop" result="composite"></feComposite><feGaussianBlur in="composite" stdDeviation="15" result="blur"></feGaussianBlur><feOffset dx="0" dy="0" result="offset"></feOffset><feComposite in="SourceGraphic" in2="offset" operator="over"></feComposite></filter><filter id="shadow-4" height="300%" width="300%" x="-100%" y="-100%"><feFlood flood-color="rgba(184, 233, 134, 1)" result="flood"></feFlood><feComposite in="flood" in2="SourceGraphic" operator="atop" result="composite"></feComposite><feGaussianBlur in="composite" stdDeviation="15" result="blur"></feGaussianBlur><feOffset dx="0" dy="0" result="offset"></feOffset><feComposite in="SourceGraphic" in2="offset" operator="over"></feComposite></filter><filter id="shadow-5" height="300%" width="300%" x="-100%" y="-100%"><feFlood flood-color="rgba(126, 211, 33, 1)" result="flood"></feFlood><feComposite in="flood" in2="SourceGraphic" operator="atop" result="composite"></feComposite><feGaussianBlur in="composite" stdDeviation="15" result="blur"></feGaussianBlur><feOffset dx="0" dy="0" result="offset"></feOffset><feComposite in="SourceGraphic" in2="offset" operator="over"></feComposite></filter><filter id="shadow-6" height="300%" width="300%" x="-100%" y="-100%"><feFlood flood-color="rgba(126, 211, 33, 1)" result="flood"></feFlood><feComposite in="flood" in2="SourceGraphic" operator="atop" result="composite"></feComposite><feGaussianBlur in="composite" stdDeviation="15" result="blur"></feGaussianBlur><feOffset dx="0" dy="0" result="offset"></feOffset><feComposite in="SourceGraphic" in2="offset" operator="over"></feComposite></filter><filter id="shadow-7" height="300%" width="300%" x="-100%" y="-100%"><feFlood flood-color="rgba(126, 211, 33, 1)" result="flood"></feFlood><feComposite in="flood" in2="SourceGraphic" operator="atop" result="composite"></feComposite><feGaussianBlur in="composite" stdDeviation="15" result="blur"></feGaussianBlur><feOffset dx="0" dy="0" result="offset"></feOffset><feComposite in="SourceGraphic" in2="offset" operator="over"></feComposite></filter><filter id="shadow-8" height="300%" width="300%" x="-100%" y="-100%"><feFlood flood-color="rgba(126, 211, 33, 1)" result="flood"></feFlood><feComposite in="flood" in2="SourceGraphic" operator="atop" result="composite"></feComposite><feGaussianBlur in="composite" stdDeviation="15" result="blur"></feGaussianBlur><feOffset dx="0" dy="0" result="offset"></feOffset><feComposite in="SourceGraphic" in2="offset" operator="over"></feComposite></filter><filter id="shadow-9" height="300%" width="300%" x="-100%" y="-100%"><feFlood flood-color="rgba(126, 211, 33, 1)" result="flood"></feFlood><feComposite in="flood" in2="SourceGraphic" operator="atop" result="composite"></feComposite><feGaussianBlur in="composite" stdDeviation="15" result="blur"></feGaussianBlur><feOffset dx="0" dy="0" result="offset"></feOffset><feComposite in="SourceGraphic" in2="offset" operator="over"></feComposite></filter><filter id="shadow-13" height="300%" width="300%" x="-100%" y="-100%"><feFlood flood-color="rgba(126, 211, 33, 1)" result="flood"></feFlood><feComposite in="flood" in2="SourceGraphic" operator="atop" result="composite"></feComposite><feGaussianBlur in="composite" stdDeviation="15" result="blur"></feGaussianBlur><feOffset dx="0" dy="0" result="offset"></feOffset><feComposite in="SourceGraphic" in2="offset" operator="over"></feComposite></filter><filter id="shadow-14" height="300%" width="300%" x="-100%" y="-100%"><feFlood flood-color="rgba(126, 211, 33, 1)" result="flood"></feFlood><feComposite in="flood" in2="SourceGraphic" operator="atop" result="composite"></feComposite><feGaussianBlur in="composite" stdDeviation="15" result="blur"></feGaussianBlur><feOffset dx="0" dy="0" result="offset"></feOffset><feComposite in="SourceGraphic" in2="offset" operator="over"></feComposite></filter><filter id="shadow-16" height="300%" width="300%" x="-100%" y="-100%"><feFlood flood-color="rgba(184, 233, 134, 1)" result="flood"></feFlood><feComposite in="flood" in2="SourceGraphic" operator="atop" result="composite"></feComposite><feGaussianBlur in="composite" stdDeviation="15" result="blur"></feGaussianBlur><feOffset dx="0" dy="0" result="offset"></feOffset><feComposite in="SourceGraphic" in2="offset" operator="over"></feComposite></filter></defs><path d="M0 0h512v512H0z" fill="#417505" fill-opacity="1"></path><g class="" style="" transform="translate(4,3)"><g transform="translate(512, 512) scale(-1, -1) rotate(540, 256, 256) skewX(0) skewY(0)"><path d="M372.03 16.318C353.18 16.318 334.337 24.028 322.816 39.443C297.702 14.987 244.02 25.735 244.02 71.691C244.02 78.374 245.16 84.308 247.176 89.501L374.082 89.501L418.062 271.599L342.504 271.599L331.99 362.019C367.92 362.915 404.543 339.807 404.543 292.663L404.541 292.499C419.669 293.697 435.391 288.279 445.041 276.255C458.117 288.147 484.896 282.479 484.896 259.241C484.896 240.291 467.091 233.041 453.426 237.451C450.07 220.429 438.336 209.663 424.376 205.144C429.514 198.141 432.676 189.072 432.676 177.931C432.676 156.059 420.51 142.171 405.058 136.249C405.36 134.729 405.524 133.105 405.524 131.374C405.524 129.654 405.36 128.041 405.062 126.53C420.976 117.16 432.488 100.254 432.488 75.79C432.488 36.143 402.26 16.32 372.031 16.318Z" class="" fill="#b8e986" fill-opacity="1" stroke="#b8e986" stroke-opacity="1" stroke-width="1" filter="url(#shadow-2)"></path><path d="M98.7 39.695C79.468 39.558 60.45 50.395 55.07 75.123C42.32 133.74 131.698 153.181 144.45 94.563C144.932 92.347 145.25 90.193 145.45 88.09C157.194 91.275 171.17 86.484 174.564 70.883C180.388 44.113 144.654 33.293 132.176 52.503C123.224 44.303 110.921 39.783 98.701 39.695Z" class="" fill="#b8e986" fill-opacity="1" filter="url(#shadow-3)"></path><path d="M160.816 108.189L125.86 252.91L194.326 252.91L215.098 431.55L305.09 431.55L325.86 252.91L394.324 252.91L359.37 108.19L160.815 108.19Z" class="" fill="#7ed321" fill-opacity="1" filter="url(#shadow-4)"></path><path d="M469.646 119.479C458.843 119.479 448.039 126.566 448.039 140.737C448.039 169.08 491.253 169.08 491.253 140.737C491.253 126.567 480.449 119.479 469.645 119.479Z" class="" fill="#b8e986" fill-opacity="1" stroke="#b8e986" stroke-opacity="1" stroke-width="2" filter="url(#shadow-5)"></path><path d="M169.11 167.477L236.402 214.705L157.34 221.783L169.11 167.477Z" class="" fill="#417505" fill-opacity="1" stroke="#b8e986" stroke-opacity="1" stroke-width="8" filter="url(#shadow-6)"></path><path d="M350.863 167.477L362.635 221.783L283.572 214.705L350.862 167.477Z" class="" fill="#417505" fill-opacity="1" filter="url(#shadow-7)" stroke="#b8e986" stroke-opacity="1" stroke-width="8"></path><path d="M462.4 176.897C454.968 176.897 447.537 181.772 447.537 191.52C447.537 211.015 477.264 211.015 477.264 191.52C477.264 181.772 469.832 176.896 462.4 176.896Z" class="selected" fill="#b8e986" fill-opacity="1" filter="url(#shadow-8)" stroke="#b8e986" stroke-opacity="1" stroke-width="8"></path><path d="M48.125 189.58C32.405 189.58 16.682 199.89 16.682 220.51C16.682 248.466 45.575 257.466 64.192 247.52C65.482 310.593 149.56 318.615 171.922 271.596L102.122 271.596L121.732 190.404C105.236 190.158 88.628 196.216 77.52 208.588C72.768 195.918 60.448 189.58 48.125 189.58Z" class="" fill="#b8e986" fill-opacity="1" filter="url(#shadow-9)"></path><path d="M259.99 230.633L291.87 272.733L276.97 284.016L259.988 261.588L243.004 284.016L228.104 272.732L259.99 230.632Z" class="" fill="#417505" fill-opacity="1"></path><path d="M40.38 272.738C32.947 272.738 25.516 277.61 25.516 287.358C25.516 306.858 55.242 306.858 55.242 287.358C55.242 277.612 47.81 272.738 40.379 272.738Z" class="" fill="#b8e986" fill-opacity="1"></path><path d="M181.602 305.298C166.415 305.956 151.712 316.254 151.712 336.195C151.712 343.947 153.932 350.239 157.542 355.075C149.387 362.568 143.994 373.58 143.994 388.133C143.994 412.039 158.524 426.405 175.998 431.258C173.658 434.743 172.242 439.154 172.242 444.496C172.242 473.188 213.064 475.099 218.516 450.238L198.456 450.238L181.602 305.298Z" class="" fill="#b8e986" fill-opacity="1"></path><path d="M328.846 389.045L321.73 450.238L269.477 450.238C280.865 476.682 315.742 482.765 337.939 468.49C343.219 504.2 400.433 502.384 400.433 463.045C400.433 437.115 375.575 427.493 357.116 434.17C357.174 433.133 357.212 432.083 357.212 431.008C357.212 408.783 344.652 394.801 328.845 389.045Z" class="" fill="#b8e986" fill-opacity="1" filter="url(#shadow-13)" stroke="#b8e986" stroke-opacity="1" stroke-width="8"></path><path d="M482.376 395.588C475.234 395.676 467.996 401.573 470.43 410.66C474.53 425.964 497.866 419.71 493.766 404.406C492.1 398.186 487.261 395.528 482.376 395.588Z" class="" fill="#b8e986" fill-opacity="1" filter="url(#shadow-14)"></path><path d="M61.312 416.842C48.177 416.842 35.042 425.455 35.042 442.684C35.042 459.914 48.182 468.53 61.317 468.527C61.057 469.897 60.913 471.355 60.913 472.907C60.913 499.409 101.323 499.409 101.323 472.907C101.323 461.601 93.968 455.135 85.536 453.475C86.836 450.359 87.581 446.765 87.581 442.685C87.581 425.455 74.446 416.842 61.311 416.842Z" class="" fill="#b8e986" fill-opacity="1"></path><path d="M463 431.766C457.417 431.834 451.798 434.848 449.312 439.936C435.908 431.189 412.947 441.954 418.338 462.076C424.382 484.636 455.406 479.188 457.996 460.056C467.65 462.838 480.216 455.278 476.771 442.424C474.758 434.908 468.907 431.694 463.001 431.766Z" class="" fill="#b8e986" fill-opacity="1" filter="url(#shadow-16)" stroke="#b8e986" stroke-opacity="1" stroke-width="8"></path><path d="M130.12 433.623C122.69 433.623 115.258 438.498 115.258 448.246C115.258 467.742 144.982 467.742 144.982 448.246C144.982 438.496 137.552 433.623 130.122 433.623Z" class="" fill="#b8e986" fill-opacity="1"></path></g></g></svg>