<svg style="height: 512px; width: 512px;" xmlns="http://www.w3.org/2000/svg" viewBox="0 0 512 512"><defs><filter id="shadow-2" height="300%" width="300%" x="-100%" y="-100%"><feFlood flood-color="rgba(245, 166, 35, 1)" result="flood"></feFlood><feComposite in="flood" in2="SourceGraphic" operator="atop" result="composite"></feComposite><feGaussianBlur in="composite" stdDeviation="15" result="blur"></feGaussianBlur><feOffset dx="0" dy="0" result="offset"></feOffset><feComposite in="SourceGraphic" in2="offset" operator="over"></feComposite></filter><filter id="shadow-3" height="300%" width="300%" x="-100%" y="-100%"><feFlood flood-color="rgba(139, 87, 42, 1)" result="flood"></feFlood><feComposite in="flood" in2="SourceGraphic" operator="atop" result="composite"></feComposite><feGaussianBlur in="composite" stdDeviation="15" result="blur"></feGaussianBlur><feOffset dx="0" dy="0" result="offset"></feOffset><feComposite in="SourceGraphic" in2="offset" operator="over"></feComposite></filter><filter id="shadow-4" height="300%" width="300%" x="-100%" y="-100%"><feFlood flood-color="rgba(208, 2, 27, 1)" result="flood"></feFlood><feComposite in="flood" in2="SourceGraphic" operator="atop" result="composite"></feComposite><feGaussianBlur in="composite" stdDeviation="15" result="blur"></feGaussianBlur><feOffset dx="0" dy="0" result="offset"></feOffset><feComposite in="SourceGraphic" in2="offset" operator="over"></feComposite></filter><filter id="shadow-5" height="300%" width="300%" x="-100%" y="-100%"><feFlood flood-color="rgba(245, 166, 35, 1)" result="flood"></feFlood><feComposite in="flood" in2="SourceGraphic" operator="atop" result="composite"></feComposite><feGaussianBlur in="composite" stdDeviation="15" result="blur"></feGaussianBlur><feOffset dx="0" dy="0" result="offset"></feOffset><feComposite in="SourceGraphic" in2="offset" operator="over"></feComposite></filter><filter id="shadow-6" height="300%" width="300%" x="-100%" y="-100%"><feFlood flood-color="rgba(139, 87, 42, 1)" result="flood"></feFlood><feComposite in="flood" in2="SourceGraphic" operator="atop" result="composite"></feComposite><feGaussianBlur in="composite" stdDeviation="15" result="blur"></feGaussianBlur><feOffset dx="0" dy="0" result="offset"></feOffset><feComposite in="SourceGraphic" in2="offset" operator="over"></feComposite></filter><filter id="shadow-7" height="300%" width="300%" x="-100%" y="-100%"><feFlood flood-color="rgba(139, 87, 42, 1)" result="flood"></feFlood><feComposite in="flood" in2="SourceGraphic" operator="atop" result="composite"></feComposite><feGaussianBlur in="composite" stdDeviation="15" result="blur"></feGaussianBlur><feOffset dx="0" dy="0" result="offset"></feOffset><feComposite in="SourceGraphic" in2="offset" operator="over"></feComposite></filter><filter id="shadow-8" height="300%" width="300%" x="-100%" y="-100%"><feFlood flood-color="rgba(139, 87, 42, 1)" result="flood"></feFlood><feComposite in="flood" in2="SourceGraphic" operator="atop" result="composite"></feComposite><feGaussianBlur in="composite" stdDeviation="15" result="blur"></feGaussianBlur><feOffset dx="0" dy="0" result="offset"></feOffset><feComposite in="SourceGraphic" in2="offset" operator="over"></feComposite></filter><filter id="shadow-9" height="300%" width="300%" x="-100%" y="-100%"><feFlood flood-color="rgba(139, 87, 42, 1)" result="flood"></feFlood><feComposite in="flood" in2="SourceGraphic" operator="atop" result="composite"></feComposite><feGaussianBlur in="composite" stdDeviation="15" result="blur"></feGaussianBlur><feOffset dx="0" dy="0" result="offset"></feOffset><feComposite in="SourceGraphic" in2="offset" operator="over"></feComposite></filter></defs><path d="M0 0h512v512H0z" fill="#d0021b" fill-opacity="1"></path><g class="" style="" transform="translate(0,5)"><g transform="translate(512, 512) scale(-1, -1) rotate(540, 256, 256) skewX(0) skewY(0)"><path d="M112.594 45.688C78.944 46.068 45.721 56.918 18.906 73.25L18.906 494.03L494.187 494.03L494.187 220.564C471.76 198.568 445.352 180.231 416.125 166.751C436.497 185.249 452.943 208.214 463.405 233.907C456.007 231.772 448.495 230.091 440.938 228.813C459.663 253.613 473.002 285.028 464.688 315.47C462.348 278.083 425.718 235.955 378.656 227.656C353.446 231.042 330.224 239.146 312.156 251.436C394.818 228.793 460.732 311.54 451.75 378.75C444.904 348.245 423.287 323.408 395.094 310.406C437.804 354.236 402.142 420.956 357.124 431.876C396.948 384.586 384.694 303.368 332.969 283.031C366.822 327.051 340.466 379.731 299.311 407.939C301.549 389.323 301.614 366.756 279.468 360.064C296.062 391.016 263.798 422.501 238.56 415.439C199.99 404.644 194.46 379.283 214.03 351.282C169.02 362.194 167.102 402.348 194.185 433.627C127.2 415.785 145.723 345.063 183.623 325.157C151.653 323.263 120.343 343.397 105.998 381.065C109.13 322.018 146.503 277.355 202.936 294.658C156.934 272.27 120.98 269.201 84.936 290.471C61.132 306.739 42.801 328.159 34.06 351.157C35.234 316.567 52.815 286.255 76.873 261.595C81.867 243.12 89.811 225.6 100.153 209.375C80.896 225.535 63.973 244.071 49.935 264.282C57.299 199.75 102.018 149.342 160.905 135.782C152.289 135.242 143.412 135.11 134.623 135.782C105.063 138.059 75.155 147.04 48.653 159.972C88.998 90.69 164.76 53.416 226.22 99.093C194.86 60.125 153.412 45.223 112.594 45.687Z" class="" fill="#f8e71c" fill-opacity="1" stroke="#f5a623" stroke-opacity="1" stroke-width="1" filter="url(#shadow-2)"></path><path d="M453.531 69.188C409.571 68.95 365.666 82.354 336.407 129.281C381.017 92.909 438.067 95.801 494.187 140.626L494.189 72.782C480.926 70.665 467.229 69.264 453.532 69.189Z" class="" fill="#f8e71c" fill-opacity="1" filter="url(#shadow-3)"></path><path d="M349.19 162.875C325.12 162.695 302.61 175.459 294.908 204.25C330.748 185.866 378.238 183.347 423.033 228.78C418.126 187.695 382.175 163.123 349.191 162.875Z" class="" fill="#d0021b" fill-opacity="1" filter="url(#shadow-4)"></path><path d="M269.19 284.688C263.168 284.65 256.783 285.485 250.127 287.375C286.299 302.317 307.387 329.755 315.065 365.313C335.938 328.781 311.34 284.949 269.19 284.688Z" class="selected" fill="#f8e71c" fill-opacity="1" stroke="#f5a623" stroke-opacity="1" stroke-width="2" filter="url(#shadow-5)"></path></g></g></svg>