<svg style="height: 512px; width: 512px;" xmlns="http://www.w3.org/2000/svg" viewBox="0 0 512 512"><defs><filter id="shadow-2" height="300%" width="300%" x="-100%" y="-100%"><feFlood flood-color="rgba(243, 6, 6, 1)" result="flood"></feFlood><feComposite in="flood" in2="SourceGraphic" operator="atop" result="composite"></feComposite><feGaussianBlur in="composite" stdDeviation="15" result="blur"></feGaussianBlur><feOffset dx="0" dy="0" result="offset"></feOffset><feComposite in="SourceGraphic" in2="offset" operator="over"></feComposite></filter><filter id="shadow-3" height="300%" width="300%" x="-100%" y="-100%"><feFlood flood-color="rgba(243, 2, 2, 1)" result="flood"></feFlood><feComposite in="flood" in2="SourceGraphic" operator="atop" result="composite"></feComposite><feGaussianBlur in="composite" stdDeviation="15" result="blur"></feGaussianBlur><feOffset dx="0" dy="0" result="offset"></feOffset><feComposite in="SourceGraphic" in2="offset" operator="over"></feComposite></filter><filter id="shadow-4" height="300%" width="300%" x="-100%" y="-100%"><feFlood flood-color="rgba(21, 11, 223, 1)" result="flood"></feFlood><feComposite in="flood" in2="SourceGraphic" operator="atop" result="composite"></feComposite><feGaussianBlur in="composite" stdDeviation="15" result="blur"></feGaussianBlur><feOffset dx="0" dy="0" result="offset"></feOffset><feComposite in="SourceGraphic" in2="offset" operator="over"></feComposite></filter><filter id="shadow-5" height="300%" width="300%" x="-100%" y="-100%"><feFlood flood-color="rgba(168, 0, 23, 1)" result="flood"></feFlood><feComposite in="flood" in2="SourceGraphic" operator="atop" result="composite"></feComposite><feGaussianBlur in="composite" stdDeviation="15" result="blur"></feGaussianBlur><feOffset dx="0" dy="0" result="offset"></feOffset><feComposite in="SourceGraphic" in2="offset" operator="over"></feComposite></filter><radialGradient id="lorc-vile-fluid-gradient-0"><stop offset="0%" stop-color="#7ed321" stop-opacity="1"></stop><stop offset="100%" stop-color="#fc88fc" stop-opacity="1"></stop></radialGradient></defs><path d="M0 0h512v512H0z" fill="url(#lorc-vile-fluid-gradient-0)"></path><g class="" style="" transform="translate(4,1)"><path d="M260.875 18.375C220.39 207.41 99.905 207.03 99.905 339.563c0 89.282 81.826 153.843 160.97 153.843 80.922 0 157.78-64.24 157.78-147.312 0-127.22-115.946-139.043-157.78-327.72zM164.72 224.53c20.58 28.427 49.463 50.325 84.843 67.126-52.21 33.95-104.512 4.16-84.844-67.125zm186.56 0c19.67 71.285-32.632 101.076-84.842 67.126 35.38-16.8 64.262-38.7 84.843-67.125zm-228.467 91c13.56 15.95 31.694 29.396 52.968 39.25.824 19.023 7.407 34.174 23.75 53.376-.656-16.11.23-30.838 3.876-43.125 17.655 5.02 36.742 7.75 56.656 7.75 18.736 0 36.733-2.438 53.5-6.905 3.442 12.116 4.3 26.536 3.657 42.28 15.894-18.673 22.544-33.512 23.655-51.81 22.768-9.975 42.15-24.008 56.438-40.814-1.84 57.177-40.896 105.505-94.625 122.533L291.75 403.78l-12.625 39.564c-6.228.84-12.593 1.28-19.063 1.28-6.468 0-12.834-.44-19.062-1.28l-12.625-39.563-10.938 34.283c-53.73-17.03-92.788-65.358-94.625-122.532z" fill="#bd10e0" fill-opacity="1" transform="translate(512, 512) scale(-1, -1) rotate(540, 256, 256) skewX(0) skewY(0)"></path></g></svg>