<svg style="height: 512px; width: 512px;" xmlns="http://www.w3.org/2000/svg" viewBox="0 0 512 512"><defs><filter id="shadow-2" height="300%" width="300%" x="-100%" y="-100%"><feFlood flood-color="rgba(243, 6, 6, 1)" result="flood"></feFlood><feComposite in="flood" in2="SourceGraphic" operator="atop" result="composite"></feComposite><feGaussianBlur in="composite" stdDeviation="15" result="blur"></feGaussianBlur><feOffset dx="0" dy="0" result="offset"></feOffset><feComposite in="SourceGraphic" in2="offset" operator="over"></feComposite></filter><filter id="shadow-3" height="300%" width="300%" x="-100%" y="-100%"><feFlood flood-color="rgba(243, 2, 2, 1)" result="flood"></feFlood><feComposite in="flood" in2="SourceGraphic" operator="atop" result="composite"></feComposite><feGaussianBlur in="composite" stdDeviation="15" result="blur"></feGaussianBlur><feOffset dx="0" dy="0" result="offset"></feOffset><feComposite in="SourceGraphic" in2="offset" operator="over"></feComposite></filter><filter id="shadow-4" height="300%" width="300%" x="-100%" y="-100%"><feFlood flood-color="rgba(21, 11, 223, 1)" result="flood"></feFlood><feComposite in="flood" in2="SourceGraphic" operator="atop" result="composite"></feComposite><feGaussianBlur in="composite" stdDeviation="15" result="blur"></feGaussianBlur><feOffset dx="0" dy="0" result="offset"></feOffset><feComposite in="SourceGraphic" in2="offset" operator="over"></feComposite></filter><filter id="shadow-5" height="300%" width="300%" x="-100%" y="-100%"><feFlood flood-color="rgba(168, 0, 23, 1)" result="flood"></feFlood><feComposite in="flood" in2="SourceGraphic" operator="atop" result="composite"></feComposite><feGaussianBlur in="composite" stdDeviation="15" result="blur"></feGaussianBlur><feOffset dx="0" dy="0" result="offset"></feOffset><feComposite in="SourceGraphic" in2="offset" operator="over"></feComposite></filter><radialGradient id="lorc-vile-fluid-gradient-0"><stop offset="0%" stop-color="#417505" stop-opacity="1"></stop><stop offset="100%" stop-color="#417505" stop-opacity="1"></stop></radialGradient></defs><path d="M0 0h512v512H0z" fill="url(#lorc-vile-fluid-gradient-0)"></path><g class="" style="" transform="translate(4,1)"><g transform="translate(512, 512) scale(-1, -1) rotate(540, 256, 256) skewX(0) skewY(0)"><path d="M260.875 18.375C220.39 207.41 99.905 207.03 99.905 339.563C99.905 428.845 181.731 493.406 260.875 493.406C341.797 493.406 418.655 429.166 418.655 346.094C418.655 218.874 302.709 207.051 260.875 18.374Z" class="selected" fill="#f8e71c" fill-opacity="1" stroke="#2403b1" stroke-opacity="1" stroke-width="1" filter="url(#shadow-2)"></path><path d="M164.72 224.53C185.3 252.957 214.183 274.855 249.563 291.656C197.353 325.606 145.051 295.816 164.719 224.531Z" class="" fill="#1106db" fill-opacity="1" filter="url(#shadow-3)"></path><path d="M351.28 224.53C370.95 295.815 318.648 325.606 266.438 291.656C301.818 274.856 330.7 252.956 351.281 224.531Z" class="" fill="#d0021b" fill-opacity="1" filter="url(#shadow-4)"></path><path d="M122.813 315.53C136.373 331.48 154.507 344.926 175.781 354.78C176.605 373.803 183.188 388.954 199.531 408.156C198.875 392.046 199.761 377.318 203.407 365.031C221.062 370.051 240.149 372.781 260.063 372.781C278.799 372.781 296.796 370.343 313.563 365.876C317.005 377.992 317.863 392.412 317.22 408.156C333.114 389.483 339.764 374.644 340.875 356.346C363.643 346.371 383.025 332.338 397.313 315.532C395.473 372.709 356.417 421.037 302.688 438.065L291.75 403.78L279.125 443.344C272.897 444.184 266.532 444.624 260.062 444.624C253.594 444.624 247.228 444.184 241 443.344L228.375 403.781L217.437 438.064C163.707 421.034 124.649 372.706 122.812 315.532Z" class="" fill="#8b572a" fill-opacity="1" stroke="#0c08f3" stroke-opacity="1" stroke-width="2" filter="url(#shadow-5)"></path></g></g></svg>