<svg style="height: 512px; width: 512px;" xmlns="http://www.w3.org/2000/svg" viewBox="0 0 512 512"><defs><filter id="shadow-2" height="300%" width="300%" x="-100%" y="-100%"><feFlood flood-color="rgba(208, 2, 27, 1)" result="flood"></feFlood><feComposite in="flood" in2="SourceGraphic" operator="atop" result="composite"></feComposite><feGaussianBlur in="composite" stdDeviation="15" result="blur"></feGaussianBlur><feOffset dx="0" dy="0" result="offset"></feOffset><feComposite in="SourceGraphic" in2="offset" operator="over"></feComposite></filter><filter id="shadow-3" height="300%" width="300%" x="-100%" y="-100%"><feFlood flood-color="rgba(243, 2, 2, 1)" result="flood"></feFlood><feComposite in="flood" in2="SourceGraphic" operator="atop" result="composite"></feComposite><feGaussianBlur in="composite" stdDeviation="15" result="blur"></feGaussianBlur><feOffset dx="0" dy="0" result="offset"></feOffset><feComposite in="SourceGraphic" in2="offset" operator="over"></feComposite></filter><filter id="shadow-4" height="300%" width="300%" x="-100%" y="-100%"><feFlood flood-color="rgba(21, 11, 223, 1)" result="flood"></feFlood><feComposite in="flood" in2="SourceGraphic" operator="atop" result="composite"></feComposite><feGaussianBlur in="composite" stdDeviation="15" result="blur"></feGaussianBlur><feOffset dx="0" dy="0" result="offset"></feOffset><feComposite in="SourceGraphic" in2="offset" operator="over"></feComposite></filter><filter id="shadow-5" height="300%" width="300%" x="-100%" y="-100%"><feFlood flood-color="rgba(168, 0, 23, 1)" result="flood"></feFlood><feComposite in="flood" in2="SourceGraphic" operator="atop" result="composite"></feComposite><feGaussianBlur in="composite" stdDeviation="15" result="blur"></feGaussianBlur><feOffset dx="0" dy="0" result="offset"></feOffset><feComposite in="SourceGraphic" in2="offset" operator="over"></feComposite></filter></defs><path d="M0 0h512v512H0z" fill="#000000" fill-opacity="1"></path><g class="" style="" transform="translate(-4,3)"><g transform="translate(512, 512) scale(-1, -1) rotate(540, 256, 256) skewX(0) skewY(0)"><path d="M42.656 14.72C98.922 34.014 131.682 87.8 93.53 124.97C191.52 206.397 184 233.742 105.094 343.03C144.77 371 181.147 443.36 175.438 490.94L230.5 490.94C198.24 468.367 187.107 441.665 181.937 416.22C211.607 412.853 239.061 415.436 262.219 425.346C265.823 450.482 266.169 474.924 263.499 490.94L282.469 490.94C284.749 475.82 285.045 457.044 283.186 437.252C299.896 449.512 313.179 467.145 321.843 490.94L355.905 490.94C325.371 460.586 307.162 427.502 291.343 393.877C286.31 395.12 281.373 396.181 276.53 397.097C272.76 381.491 267.616 366.337 260.97 352.907C275.514 333.787 282.484 316.017 281.844 298.377C281.57 290.839 279.96 283.557 277.314 276.347C299.502 269.635 318.579 264.853 338.312 262.783C342.554 283.918 348.258 304.886 355.937 325.566L358 331.128L363.906 331.628C386.052 333.478 405.789 336.554 424.781 341.253C428.721 381.183 418.083 419.55 394.689 460.191C409.362 469.718 420.842 480.048 430.064 490.941L454.47 490.941C413.973 466.693 421.797 415.261 446.25 388.566C468.218 400.253 482.444 412.556 494.094 430.066L494.094 393.941C467.459 390.008 451.484 372.025 442.874 346.284C459.702 351.504 476.354 358.157 494.031 366.567L494.031 345.942C474.954 337.302 456.576 330.569 437.721 325.41C433.015 298.4 433.876 266.132 437.751 233.535C408.911 241.519 380.657 244.645 353.845 243.692C349.672 218.895 347.345 193.699 346.095 168.192L345.439 155.036L333.219 160.006C279.091 182.021 214.102 176.34 177.063 149.976C153.216 110.84 147.39 63.24 168 14.72L42.656 14.72Z" class="" fill="#f8e71c" fill-opacity="1" stroke="#1603ff" stroke-opacity="1" stroke-width="1" filter="url(#shadow-2)"></path><path d="M328.187 181.75C329.47 202.005 331.489 222.21 334.657 242.28C282.39 236.5 236.747 215.046 204.594 184.094C241.887 196.084 286.84 195.598 328.188 181.75Z" class="" fill="#000000" fill-opacity="1" filter="url(#shadow-3)"></path><path d="M206.657 231.844C220.35 239.33 233.659 246.471 245.031 256.314C256.501 272.634 262.689 286.154 263.157 299.062C263.647 312.596 258.262 326.954 242.72 345.937L238.75 350.812L241.75 356.344C248.45 368.614 253.64 383.854 257.438 399.938C159.038 410.278 112.622 346.25 206.656 231.844Z" class="selected" fill="#000000" fill-opacity="1" filter="url(#shadow-4)"></path><path d="M359.437 261.656C372.117 261.606 385.552 262.664 400.594 265.031C410.748 284.507 417.704 303.201 421.656 321.439C405.746 317.883 389.29 315.325 371.594 313.626C365.564 296.558 360.874 279.24 357.219 261.688C357.957 261.678 358.693 261.66 359.436 261.658Z" class="" fill="#000000" fill-opacity="1" stroke="#0c08f3" stroke-opacity="1" stroke-width="2" filter="url(#shadow-5)"></path></g></g></svg>